<svg width="277" height="206" viewBox="0 0 277 206" fill="none" xmlns="http://www.w3.org/2000/svg">
<path d="M222.321 65.9758C218.568 95.9557 192.348 125.886 163.511 145.161C88.9911 195.378 16.9496 110.166 35.1214 79.5613C48.7613 48.5198 91.3095 57.046 109.41 44.8428C211.138 -24.2294 225.848 40.8838 222.321 65.9758Z" fill="#5B9FFA"/>
<path opacity="0.9" d="M222.321 65.9758C218.568 95.9557 192.348 125.886 163.511 145.161C88.9911 195.378 16.9496 110.166 35.1214 79.5613C48.7613 48.5198 91.3095 57.046 109.41 44.8428C211.138 -24.2294 225.848 40.8838 222.321 65.9758Z" fill="white"/>
<path d="M138.5 206C197.61 206 245.527 203.197 245.527 199.741C245.527 196.284 197.61 193.481 138.5 193.481C79.3905 193.481 31.4728 196.284 31.4728 199.741C31.4728 203.197 79.3905 206 138.5 206Z" fill="#F5F5F5"/>
<path d="M138.478 169.225H60.094L55.8049 42.9517H134.189L138.478 169.225Z" fill="#5B9FFA"/>
<path d="M142.392 165.304H64.0077L59.7131 39.0312H138.097L142.392 165.304Z" fill="#5B9FFA"/>
<path opacity="0.3" d="M142.392 165.304H64.0077L59.7131 39.0312H138.097L142.392 165.304Z" fill="white"/>
<path d="M116.129 90.9922C124.522 82.4403 124.165 68.4565 115.331 59.7585C106.498 51.0605 92.5339 50.942 84.1412 59.4939C75.7485 68.0458 76.1055 82.0296 84.9387 90.7276C93.7719 99.4257 107.736 99.5441 116.129 90.9922Z" fill="#5B9FFA"/>
<path d="M118.336 75.2482C118.448 78.257 117.793 81.245 116.431 83.9292C114.961 86.8219 112.716 89.2471 109.947 90.9329C107.178 92.6186 103.995 93.4981 100.754 93.4728C97.438 93.4548 94.1846 92.5636 91.3206 90.8885C88.4567 89.2135 86.0828 86.8134 84.4372 83.9292C82.9029 81.2862 82.0457 78.3038 81.9422 75.2482C81.8404 72.8789 82.2205 70.5136 83.0595 68.2961C83.8984 66.0785 85.1787 64.0549 86.8226 62.3483C88.4664 60.6417 90.4395 59.2877 92.6219 58.3685C94.8043 57.4494 97.1505 56.9843 99.5179 57.0014C104.395 57.036 109.071 58.9512 112.576 62.3491C116.08 65.747 118.143 70.3666 118.336 75.2482Z" fill="white"/>
<path opacity="0.6" d="M116.42 83.9293C114.95 86.822 112.705 89.2473 109.936 90.933C107.167 92.6188 103.984 93.4983 100.743 93.4729C97.4269 93.455 94.1735 92.5638 91.3096 90.8887C88.4456 89.2136 86.0717 86.8136 84.4261 83.9293C89.0945 80.7412 94.6185 79.0465 100.269 79.0691C106.01 79.0815 111.623 80.7705 116.42 83.9293Z" fill="#5B9FFA"/>
<path opacity="0.6" d="M105.806 74.7936C108.892 71.649 108.761 66.507 105.513 63.3087C102.265 60.1103 97.13 60.0668 94.0439 63.2114C90.9578 66.356 91.0891 71.498 94.3371 74.6964C97.5852 77.8947 102.72 77.9382 105.806 74.7936Z" fill="#5B9FFA"/>
<path d="M126.643 119.577H76.6429L76.3062 109.624H126.306L126.643 119.577Z" fill="white"/>
<path d="M127.25 137.364H77.2446L76.9078 127.412H126.914L127.25 137.364Z" fill="white"/>
<path d="M107.952 128.783L95.9022 130.442C95.7873 130.455 95.6762 130.492 95.5762 130.55C95.4761 130.608 95.3891 130.686 95.3206 130.78C95.2522 130.873 95.2038 130.98 95.1785 131.093C95.1532 131.206 95.1515 131.323 95.1736 131.437L96.7578 139.526C96.8097 139.764 96.9483 139.973 97.1465 140.113C97.3447 140.253 97.588 140.314 97.8287 140.284L109.879 138.625C109.994 138.61 110.104 138.573 110.204 138.513C110.303 138.454 110.389 138.376 110.457 138.282C110.525 138.188 110.573 138.081 110.598 137.968C110.623 137.855 110.624 137.738 110.602 137.624L109.023 129.535C108.971 129.298 108.833 129.089 108.634 128.95C108.436 128.81 108.193 128.751 107.952 128.783ZM104.491 136.977L102.283 137.27L102.068 134.661C101.841 134.562 101.64 134.41 101.483 134.218C101.327 134.025 101.219 133.798 101.168 133.555C101.128 133.366 101.127 133.172 101.166 132.983C101.206 132.794 101.284 132.616 101.396 132.46C101.509 132.303 101.653 132.172 101.819 132.075C101.985 131.978 102.169 131.917 102.361 131.896C102.753 131.845 103.149 131.944 103.472 132.172C103.795 132.401 104.021 132.742 104.105 133.129C104.153 133.363 104.138 133.605 104.063 133.831C103.987 134.057 103.853 134.259 103.674 134.417L104.491 136.977Z" fill="#5B9FFA"/>
<path d="M106.76 128.346C106.547 128.373 106.332 128.32 106.156 128.196C105.98 128.072 105.857 127.887 105.811 127.677L105.656 126.887C105.436 125.807 104.832 124.845 103.957 124.178C103.082 123.511 101.995 123.185 100.898 123.259C100.344 123.291 99.804 123.441 99.3136 123.701C98.8233 123.96 98.3944 124.322 98.0561 124.762C97.7178 125.202 97.4781 125.71 97.3531 126.251C97.2282 126.792 97.2209 127.354 97.3319 127.898L97.5086 128.811C97.5292 128.912 97.5284 129.016 97.5064 129.117C97.4844 129.218 97.4417 129.313 97.3809 129.396C97.3201 129.479 97.2426 129.549 97.1534 129.601C97.0641 129.652 96.9652 129.684 96.8627 129.695C96.6493 129.725 96.4325 129.673 96.2563 129.548C96.08 129.424 95.9574 129.238 95.9133 129.026L95.7643 128.258C95.6127 127.539 95.6077 126.798 95.7495 126.078C95.8913 125.357 96.1771 124.673 96.5895 124.066C97.002 123.459 97.5328 122.942 98.1498 122.546C98.7669 122.15 99.4575 121.883 100.18 121.761C101.747 121.497 103.356 121.848 104.671 122.741C105.987 123.633 106.909 124.999 107.246 126.555L107.423 127.462C107.443 127.564 107.442 127.669 107.419 127.771C107.396 127.873 107.352 127.969 107.289 128.053C107.227 128.136 107.147 128.205 107.056 128.256C106.965 128.307 106.864 128.337 106.76 128.346Z" fill="#5B9FFA"/>
<path d="M118.998 151.304H86.4465L86.2312 144.824H118.777L118.998 151.304Z" fill="#5B9FFA"/>
<path d="M103.293 114.6C103.303 114.837 103.265 115.073 103.181 115.294C103.097 115.515 102.969 115.717 102.805 115.887C102.641 116.057 102.444 116.192 102.226 116.283C102.008 116.375 101.774 116.421 101.538 116.42C101.051 116.416 100.585 116.225 100.234 115.886C99.8841 115.548 99.677 115.088 99.6558 114.6C99.6461 114.364 99.6843 114.128 99.7683 113.907C99.8523 113.686 99.9803 113.484 100.144 113.314C100.309 113.144 100.505 113.009 100.723 112.918C100.941 112.826 101.175 112.78 101.411 112.781C101.898 112.784 102.366 112.974 102.716 113.313C103.067 113.652 103.274 114.113 103.293 114.6Z" fill="#263238"/>
<path d="M95.4441 114.6C95.4546 114.837 95.4168 115.073 95.3331 115.295C95.2494 115.516 95.1215 115.718 94.9572 115.888C94.7929 116.059 94.5957 116.194 94.3776 116.285C94.1595 116.376 93.9251 116.422 93.6887 116.42C93.2025 116.416 92.7365 116.225 92.3871 115.886C92.0377 115.547 91.8317 115.087 91.8119 114.6C91.8022 114.364 91.8405 114.128 91.9245 113.907C92.0085 113.686 92.1364 113.484 92.3005 113.314C92.4647 113.144 92.6616 113.009 92.8793 112.918C93.0971 112.826 93.3311 112.78 93.5673 112.781C94.0539 112.784 94.5207 112.974 94.8704 113.313C95.2201 113.652 95.4256 114.113 95.4441 114.6Z" fill="#263238"/>
<path d="M87.6443 114.6C87.654 114.837 87.6157 115.073 87.5317 115.294C87.4477 115.515 87.3198 115.717 87.1556 115.887C86.9915 116.057 86.7946 116.192 86.5768 116.283C86.3591 116.375 86.1251 116.421 85.8889 116.42C85.4023 116.417 84.9355 116.226 84.5858 115.888C84.2361 115.549 84.0306 115.088 84.0121 114.6C84.0024 114.364 84.0407 114.128 84.1247 113.907C84.2087 113.686 84.3366 113.484 84.5007 113.314C84.6649 113.144 84.8618 113.009 85.0795 112.918C85.2973 112.826 85.5313 112.78 85.7675 112.781C86.254 112.784 86.7209 112.974 87.0706 113.313C87.4202 113.652 87.6258 114.113 87.6443 114.6Z" fill="#263238"/>
<path d="M111.115 114.601C111.125 114.837 111.087 115.073 111.003 115.294C110.919 115.515 110.791 115.717 110.627 115.887C110.463 116.057 110.266 116.192 110.048 116.283C109.83 116.375 109.596 116.421 109.36 116.42C108.873 116.417 108.407 116.227 108.057 115.888C107.707 115.549 107.502 115.088 107.483 114.601C107.475 114.365 107.514 114.13 107.6 113.91C107.685 113.69 107.813 113.49 107.978 113.321C108.143 113.153 108.34 113.02 108.557 112.93C108.775 112.84 109.009 112.795 109.244 112.798C109.727 112.802 110.19 112.991 110.538 113.326C110.886 113.661 111.093 114.117 111.115 114.601Z" fill="#263238"/>
<path d="M118.937 114.6C118.948 114.837 118.91 115.073 118.826 115.295C118.742 115.516 118.615 115.718 118.45 115.888C118.286 116.059 118.089 116.194 117.871 116.285C117.653 116.376 117.418 116.422 117.182 116.42C116.696 116.416 116.23 116.225 115.88 115.886C115.531 115.547 115.325 115.087 115.305 114.6C115.295 114.364 115.334 114.128 115.418 113.907C115.502 113.686 115.629 113.484 115.794 113.314C115.958 113.144 116.155 113.009 116.372 112.918C116.59 112.826 116.824 112.78 117.06 112.781C117.547 112.784 118.014 112.974 118.363 113.313C118.713 113.652 118.919 114.113 118.937 114.6Z" fill="#263238"/>
<path d="M184.818 65.9536C185.552 67.1369 186.165 68.2649 186.794 69.4426C187.424 70.6203 187.992 71.8036 188.55 73.0145C189.687 75.4665 190.629 78.005 191.365 80.6063C191.464 80.9325 191.536 81.2809 191.619 81.6181L191.74 82.1324L191.801 82.3867L191.873 82.8069C191.997 83.7602 191.939 84.7286 191.702 85.6601C191.321 87.1064 190.741 88.4927 189.98 89.7794C188.617 92.1177 186.971 94.2777 185.078 96.21L182.754 94.4517C183.92 92.3037 184.958 90.0881 185.862 87.8165C186.264 86.8156 186.548 85.7708 186.706 84.7035C186.757 84.3776 186.742 84.0448 186.662 83.7248L186.441 83.0502C186.353 82.7738 186.27 82.4973 186.165 82.2153C185.326 79.9342 184.354 77.704 183.256 75.5359C182.152 73.3242 180.965 71.1125 179.779 69.0003L184.818 65.9536Z" fill="#FF8B7B"/>
<path d="M183.344 93.6831L180.805 95.0267L183.72 98.4438C183.72 98.4438 185.541 97.2108 185.624 95.3308L183.344 93.6831Z" fill="#FF8B7B"/>
<path d="M177.399 97.1335L180.518 99.6162L183.72 98.444L180.805 95.0269L177.399 97.1335Z" fill="#FF8B7B"/>
<path d="M166.735 47.8618C166.674 48.1715 166.459 48.3871 166.26 48.3484C166.061 48.3097 165.945 48.0222 166.006 47.7181C166.067 47.414 166.282 47.1652 166.486 47.2315C166.691 47.2979 166.796 47.5522 166.735 47.8618Z" fill="#263238"/>
<path d="M166.486 48.3926C165.931 49.2587 165.258 50.0438 164.488 50.7259C164.67 50.9147 164.89 51.0619 165.134 51.1573C165.378 51.2527 165.64 51.2942 165.901 51.2789L166.486 48.3926Z" fill="#FF5652"/>
<path d="M165.493 59.241V55.6138L170.284 56.1667C170.284 56.1667 170.207 59.2852 167.524 60.2031L165.493 59.241Z" fill="#FF8B7B"/>
<path d="M166.873 53.0039L170.246 53.9771L170.306 56.1943L165.515 55.6137L166.873 53.0039Z" fill="#FF8B7B"/>
<path opacity="0.2" d="M170.246 53.9771L166.873 53.0039L166.216 54.2646C166.252 55.258 166.562 56.2219 167.111 57.0496C167.661 57.8773 168.429 58.5363 169.329 58.9534C169.909 58.1426 170.247 57.1842 170.306 56.1888L170.246 53.9771Z" fill="black"/>
<path d="M168.203 46.3854C168.239 46.3844 168.273 46.3735 168.302 46.3538C168.332 46.3341 168.355 46.3065 168.37 46.2741C168.384 46.2417 168.389 46.2059 168.384 46.1708C168.379 46.1357 168.364 46.1028 168.341 46.0758C168.147 45.8564 167.904 45.6868 167.631 45.581C167.358 45.4751 167.064 45.4362 166.774 45.4675C166.726 45.4756 166.684 45.5023 166.656 45.5417C166.628 45.5811 166.616 45.63 166.624 45.6776C166.633 45.7256 166.659 45.7686 166.698 45.7975C166.737 45.8263 166.786 45.8389 166.834 45.8325C167.065 45.8098 167.297 45.8427 167.512 45.9283C167.727 46.0139 167.919 46.1498 168.071 46.3246C168.088 46.343 168.108 46.3579 168.131 46.3684C168.154 46.3788 168.178 46.3846 168.203 46.3854Z" fill="#263238"/>
<path d="M175.258 53.4575C174.706 56.3051 174.363 60.2475 176.362 62.1441C176.362 62.1441 175.589 65.0304 170.29 65.0304C164.488 65.0304 167.502 62.4979 167.502 62.4979C169.914 61.746 169.892 58.9979 169.34 56.7862L175.258 53.4575Z" fill="#FF8B7B"/>
<path d="M177.438 64.046C177.957 63.3161 177.935 60.9993 177.383 60.5901C176.494 59.9322 172.68 59.7773 167.552 60.9606C168.104 63.2055 166.917 64.3777 166.917 64.3777L177.438 64.046Z" fill="#5B9FFA"/>
<path d="M194.694 195.317C194.536 195.373 194.369 195.397 194.202 195.387C194.036 195.378 193.872 195.335 193.722 195.262C193.665 195.209 193.626 195.14 193.61 195.063C193.594 194.987 193.603 194.908 193.634 194.836C193.651 194.777 193.681 194.721 193.722 194.675C193.763 194.628 193.814 194.59 193.871 194.565C194.396 194.311 195.599 194.803 195.654 194.825C195.671 194.832 195.685 194.843 195.694 194.858C195.704 194.873 195.71 194.891 195.709 194.908C195.709 194.926 195.705 194.943 195.696 194.959C195.687 194.974 195.675 194.987 195.66 194.997C195.348 195.134 195.025 195.241 194.694 195.317ZM194.059 194.693C194.022 194.701 193.987 194.714 193.954 194.731C193.92 194.744 193.889 194.765 193.864 194.791C193.839 194.818 193.82 194.851 193.81 194.886C193.761 195.052 193.81 195.107 193.844 195.124C194.053 195.301 194.826 195.124 195.373 194.919C194.957 194.747 194.508 194.67 194.059 194.693Z" fill="#5B9FFA"/>
<path d="M195.638 195.002H195.593C195.152 194.875 194.213 194.206 194.202 193.769C194.202 193.7 194.225 193.632 194.268 193.578C194.312 193.524 194.372 193.486 194.44 193.471C194.505 193.446 194.575 193.436 194.645 193.442C194.715 193.448 194.782 193.469 194.843 193.504C195.362 193.769 195.693 194.842 195.704 194.892C195.712 194.905 195.716 194.92 195.716 194.936C195.716 194.951 195.712 194.967 195.704 194.98C195.695 194.989 195.685 194.995 195.673 194.999C195.662 195.003 195.65 195.004 195.638 195.002ZM194.534 193.625H194.489C194.379 193.664 194.379 193.719 194.379 193.747C194.379 194.007 195.008 194.532 195.483 194.742C195.367 194.433 195.113 193.819 194.776 193.636C194.702 193.602 194.617 193.598 194.539 193.625H194.534Z" fill="#5B9FFA"/>
<path d="M166.023 195.97C165.526 195.97 165.046 195.898 164.886 195.677C164.844 195.618 164.821 195.547 164.821 195.475C164.821 195.403 164.844 195.332 164.886 195.273C164.917 195.219 164.959 195.172 165.01 195.135C165.06 195.098 165.117 195.072 165.178 195.058C165.824 194.881 167.182 195.655 167.237 195.688C167.254 195.696 167.268 195.71 167.276 195.727C167.284 195.744 167.286 195.763 167.281 195.782C167.279 195.801 167.271 195.819 167.258 195.832C167.245 195.846 167.228 195.856 167.21 195.859C166.818 195.931 166.421 195.968 166.023 195.97ZM165.41 195.212C165.351 195.203 165.292 195.203 165.233 195.212C165.196 195.22 165.161 195.235 165.129 195.257C165.098 195.279 165.071 195.307 165.051 195.34C164.985 195.456 165.013 195.511 165.051 195.544C165.233 195.798 166.21 195.804 166.934 195.699C166.461 195.44 165.944 195.275 165.41 195.212Z" fill="#5B9FFA"/>
<path d="M167.204 195.859H167.165C166.696 195.649 165.769 194.809 165.841 194.366C165.841 194.261 165.929 194.134 166.183 194.112C166.274 194.101 166.366 194.11 166.453 194.136C166.54 194.163 166.621 194.207 166.691 194.267C167.044 194.69 167.257 195.214 167.298 195.765C167.298 195.781 167.294 195.797 167.288 195.811C167.281 195.825 167.271 195.838 167.259 195.848C167.242 195.857 167.223 195.861 167.204 195.859ZM166.255 194.283H166.199C166.034 194.283 166.023 194.361 166.023 194.383C165.979 194.648 166.608 195.312 167.088 195.599C167.046 195.156 166.866 194.736 166.575 194.399C166.484 194.322 166.368 194.281 166.249 194.283H166.255Z" fill="#5B9FFA"/>
<path d="M171.465 195.771H167.585L167.198 186.764H171.079L171.465 195.771Z" fill="#FF8B7B"/>
<path d="M199.965 193.969L196.173 194.792L192.359 186.404L196.156 185.581L199.965 193.969Z" fill="#FF8B7B"/>
<path d="M195.803 194.411L200.07 193.487C200.145 193.471 200.222 193.481 200.291 193.516C200.359 193.55 200.413 193.606 200.446 193.675L201.925 196.893C201.964 196.971 201.985 197.057 201.984 197.145C201.984 197.232 201.963 197.318 201.923 197.396C201.884 197.474 201.826 197.541 201.755 197.592C201.684 197.643 201.603 197.676 201.516 197.69C200.026 197.983 199.281 198.055 197.41 198.458C196.256 198.713 193.65 199.348 192.055 199.691C190.46 200.034 189.913 198.502 190.537 198.22C193.325 196.943 194.484 195.821 195.24 194.776C195.377 194.589 195.577 194.459 195.803 194.411Z" fill="#263238"/>
<path d="M167.613 195.317H171.852C171.929 195.318 172.003 195.344 172.063 195.393C172.124 195.441 172.166 195.508 172.183 195.583L172.95 199.039C172.973 199.122 172.975 199.21 172.958 199.295C172.941 199.379 172.904 199.459 172.85 199.526C172.796 199.594 172.727 199.648 172.649 199.685C172.57 199.721 172.485 199.738 172.398 199.735C170.869 199.708 168.661 199.619 166.74 199.619C164.488 199.619 162.551 199.741 159.912 199.741C158.317 199.741 157.875 198.126 158.543 197.977C161.579 197.313 164.063 197.242 166.685 195.622C166.961 195.437 167.281 195.332 167.613 195.317Z" fill="#263238"/>
<path d="M183.306 63.0344C186.944 63.8693 189.93 73.1752 189.93 73.1752L182.66 78.7432C180.773 76.7223 179.442 74.2456 178.796 71.5551C177.51 66.6782 179.585 62.1718 183.306 63.0344Z" fill="#5B9FFA"/>
<path opacity="0.4" d="M183.306 63.0344C186.944 63.8693 189.93 73.1752 189.93 73.1752L182.66 78.7432C180.773 76.7223 179.442 74.2456 178.796 71.5551C177.51 66.6782 179.585 62.1718 183.306 63.0344Z" fill="black"/>
<path d="M164.168 74.1316C163.263 75.1103 162.357 75.9839 161.408 76.8963C160.939 77.3386 160.464 77.7809 159.978 78.2067L159.244 78.8536L159.062 79.014L158.747 79.2683C158.424 79.5275 158.065 79.7397 157.682 79.8987C157.256 80.0798 156.798 80.1738 156.335 80.1751C155.94 80.1768 155.547 80.1075 155.176 79.9706C154.764 79.8135 154.389 79.5746 154.072 79.2683C153.668 78.8724 153.371 78.3794 153.211 77.8362C153.127 77.5684 153.073 77.2921 153.051 77.0124C153.022 76.6849 153.022 76.3556 153.051 76.0281C153.078 75.7627 153.111 75.5305 153.156 75.3149C153.307 74.5609 153.521 73.8211 153.796 73.1031C154.044 72.4207 154.33 71.7525 154.652 71.1015C155.005 70.3993 155.342 69.8851 155.678 69.299C157.046 67.0548 158.607 64.9345 160.343 62.9624C162.061 61.0019 163.955 59.2029 166.001 57.5879L168.032 59.6835C166.608 61.5966 165.206 63.648 163.909 65.6662C162.618 67.673 161.438 69.7496 160.376 71.8867C160.138 72.4064 159.824 72.9926 159.675 73.4128C159.477 73.9009 159.306 74.3993 159.161 74.9057C159.022 75.3617 158.917 75.8275 158.847 76.2991C158.843 76.3728 158.843 76.4466 158.847 76.5203C158.847 76.5645 158.847 76.5866 158.847 76.4705C158.838 76.3464 158.814 76.2238 158.775 76.1056C158.656 75.7136 158.437 75.3592 158.14 75.0771C157.876 74.8342 157.567 74.6462 157.229 74.5242C156.933 74.4117 156.619 74.3537 156.302 74.3528C155.997 74.3491 155.695 74.4074 155.413 74.5242C155.318 74.5632 155.226 74.6094 155.137 74.6624L155.347 74.4689L156.015 73.8607L157.334 72.6221C158.206 71.7982 159.084 70.9191 159.912 70.1007L164.168 74.1316Z" fill="#FF8B7B"/>
<path opacity="0.2" d="M180.187 69.8687C182.163 71.826 182.809 75.398 182.947 78.4944L182.627 78.7432C180.74 76.7223 179.409 74.2456 178.763 71.5551C178.691 71.2676 178.625 71.0022 178.575 70.687L180.187 69.8687Z" fill="black"/>
<path d="M160.31 66.9045C159.515 71.1068 159.018 79.7381 161.32 96.8236H182.108C182.252 93.6332 180.248 78.0516 183.322 63.0064C181.025 62.5645 178.702 62.2709 176.367 62.1272C173.426 61.9582 170.477 61.9582 167.535 62.1272C166.564 62.2157 165.603 62.3595 164.775 62.5087C163.674 62.7023 162.657 63.2262 161.86 64.0111C161.063 64.796 160.522 65.805 160.31 66.9045Z" fill="#5B9FFA"/>
<path opacity="0.4" d="M160.31 66.9045C159.515 71.1068 159.018 79.7381 161.32 96.8236H182.108C182.252 93.6332 180.248 78.0516 183.322 63.0064C181.025 62.5645 178.702 62.2709 176.367 62.1272C173.426 61.9582 170.477 61.9582 167.535 62.1272C166.564 62.2157 165.603 62.3595 164.775 62.5087C163.674 62.7023 162.657 63.2262 161.86 64.0111C161.063 64.796 160.522 65.805 160.31 66.9045Z" fill="black"/>
<path opacity="0.2" d="M163.489 73.1361L159.735 72.2349C159.62 74.5129 159.608 77.3329 159.774 80.8219C161.502 78.8534 163.71 75.7792 163.489 73.1361Z" fill="black"/>
<path opacity="0.2" d="M167.198 186.764L167.397 191.408H171.283L171.085 186.764H167.198Z" fill="black"/>
<path opacity="0.2" d="M196.156 185.581L192.359 186.404L194.324 190.728L198.122 189.904L196.156 185.581Z" fill="black"/>
<path d="M177.101 49.2996C176.108 53.0264 175.71 55.2602 173.414 56.8084C169.964 59.1639 165.658 56.4656 165.548 52.5287C165.427 48.9734 167.077 43.4717 171.068 42.7197C171.945 42.5548 172.849 42.6164 173.696 42.8986C174.543 43.1807 175.304 43.6742 175.908 44.3325C176.511 44.9908 176.938 45.7922 177.146 46.6613C177.355 47.5303 177.34 48.4383 177.101 49.2996Z" fill="#FF8B7B"/>
<path d="M168.391 49.4378C168.203 48.9402 167.348 45.0863 168.153 44.0855C168.959 43.0846 178.15 43.809 179.508 45.1471C181.766 47.3588 180.198 49.3494 177.731 51.9094C175.876 53.8336 175.804 56.0011 174.866 56.3329C173.21 56.8858 170.682 56.3661 170.174 54.6133C169.666 52.8605 168.391 49.4378 168.391 49.4378Z" fill="#263238"/>
<path d="M178.393 40.7622C175.147 39.3798 169.059 40.9115 165.769 40.1152C165.727 41.3406 166.129 42.5398 166.901 43.4911C167.674 44.4425 168.763 45.0817 169.97 45.2907C172.699 45.8116 175.471 46.069 178.25 46.0592C181.86 45.8934 181.153 41.9399 178.393 40.7622Z" fill="#263238"/>
<path d="M178.901 45.263C180.087 45.3798 181.281 45.1514 182.34 44.605C182.947 46.0758 179.607 46.4794 178.901 45.263Z" fill="#263238"/>
<path d="M170.157 49.5926C170.083 50.5515 169.695 51.4591 169.053 52.1748C168.203 53.1092 167.32 52.5231 167.171 51.3896C167.038 50.3612 167.314 48.625 168.352 48.1273C169.39 47.6297 170.229 48.437 170.157 49.5926Z" fill="#FF8B7B"/>
<path d="M168.689 96.8402C168.689 96.8402 173.105 126.56 175.517 137.696C178.161 149.888 192.37 190.225 192.37 190.225L199.319 188.715C199.319 188.715 189.383 155.838 187.175 138.791C185.464 125.698 182.103 96.8291 182.103 96.8291L168.689 96.8402Z" fill="#5B9FFA"/>
<path d="M190.703 187.908C190.675 187.908 192 190.429 192 190.429L199.816 188.732L199.159 186.376L190.703 187.908Z" fill="#263238"/>
<path opacity="0.3" d="M171.477 107.429C176.571 108.43 176.031 127.462 175.418 137.254C173.949 130.331 171.797 117.017 170.328 107.567C170.684 107.391 171.089 107.342 171.477 107.429Z" fill="black"/>
<path d="M161.32 96.8405C161.32 96.8405 160.768 125.919 161.209 137.757C161.651 150.093 165.951 190.485 165.951 190.485H172.531C172.531 190.485 172.768 150.812 173.083 138.697C173.403 125.493 174.993 96.8184 174.993 96.8184L161.32 96.8405Z" fill="#5B9FFA"/>
<path d="M164.687 187.886C164.654 187.886 165.057 190.618 165.057 190.618H173.055L173.276 188.179L164.687 187.886Z" fill="#263238"/>
<path d="M168.446 68.1986C170.306 73.2248 159.371 79.1467 159.371 79.1467L154.635 73.0644C154.635 73.0644 157.82 66.7499 161.684 63.9079C166.459 60.4023 167.027 64.3723 168.446 68.1986Z" fill="#5B9FFA"/>
<path opacity="0.4" d="M168.446 68.1986C170.306 73.2248 159.371 79.1467 159.371 79.1467L154.635 73.0644C154.635 73.0644 157.82 66.7499 161.684 63.9079C166.459 60.4023 167.027 64.3723 168.446 68.1986Z" fill="black"/>
<path d="M211.292 30.0408C222.295 30.0408 231.214 24.347 231.214 17.3234C231.214 10.2997 222.295 4.60596 211.292 4.60596C200.29 4.60596 191.37 10.2997 191.37 17.3234C191.37 24.347 200.29 30.0408 211.292 30.0408Z" fill="#5B9FFA"/>
<path d="M204.105 23.7263C202.793 23.7221 201.524 23.2547 200.521 22.4063C199.519 21.5578 198.847 20.3827 198.624 19.0872C198.404 17.684 198.72 16.2495 199.509 15.0691C200.298 13.8887 201.501 13.0492 202.88 12.7175C204.011 12.4563 205.196 12.557 206.267 13.0053C207.339 13.4536 208.243 14.227 208.852 15.2167L221.642 12.5737C222.134 12.4659 222.648 12.5477 223.082 12.803C223.516 13.0582 223.837 13.468 223.983 13.9505C224.05 14.2042 224.064 14.4689 224.026 14.7284C223.987 14.9879 223.896 15.2368 223.758 15.4598C223.62 15.6829 223.438 15.8754 223.223 16.0257C223.009 16.1759 222.765 16.2807 222.509 16.3336L222.178 16.4C222.128 16.4088 222.082 16.4289 222.042 16.4586C222.002 16.4883 221.969 16.5269 221.946 16.5714C221.925 16.6166 221.915 16.6656 221.915 16.7152C221.915 16.7647 221.925 16.8137 221.946 16.8589L222.172 17.445C222.248 17.635 222.255 17.8455 222.193 18.0403C222.13 18.2351 222.002 18.402 221.83 18.5122C221.694 18.5962 221.579 18.71 221.494 18.8451C221.409 18.9802 221.356 19.133 221.339 19.2918C221.322 19.4741 221.249 19.6466 221.129 19.7846C221.009 19.9226 220.849 20.0191 220.671 20.0604L220.411 20.1157C220.231 20.149 220.046 20.124 219.881 20.0445C219.716 19.965 219.581 19.835 219.495 19.6733C219.38 19.4805 219.209 19.3282 219.004 19.2378C218.798 19.1474 218.57 19.1234 218.351 19.169C218.132 19.2147 217.932 19.3278 217.78 19.4925C217.628 19.6572 217.531 19.8654 217.502 20.088C217.487 20.2691 217.414 20.4407 217.295 20.5778C217.176 20.715 217.017 20.8107 216.84 20.8511L216.58 20.9064C216.401 20.9388 216.215 20.9135 216.051 20.834C215.886 20.7546 215.751 20.6251 215.664 20.464C215.581 20.3269 215.47 20.2094 215.337 20.1196C215.205 20.0299 215.055 19.9701 214.897 19.9443C214.685 19.9187 214.489 19.8164 214.347 19.6565C214.204 19.4967 214.125 19.2903 214.124 19.0762V18.4458C214.122 18.3965 214.109 18.3483 214.086 18.3044C214.064 18.2605 214.032 18.222 213.993 18.1916C213.954 18.1611 213.91 18.1394 213.862 18.128C213.814 18.1165 213.764 18.1155 213.716 18.1251L209.636 18.9656C209.47 20.0976 208.959 21.1508 208.174 21.9819C207.389 22.813 206.367 23.3815 205.248 23.6102C204.872 23.6872 204.489 23.7261 204.105 23.7263ZM203.001 13.2206C201.749 13.5136 200.654 14.2708 199.938 15.3399C199.221 16.4089 198.935 17.7104 199.137 18.9822C199.354 20.1654 199.987 21.2317 200.921 21.9882C201.855 22.7447 203.028 23.1415 204.228 23.1068C205.429 23.072 206.577 22.6081 207.466 21.7988C208.355 20.9895 208.925 19.8884 209.073 18.6946V18.4956L213.572 17.5833C213.701 17.552 213.835 17.5499 213.965 17.5771C214.095 17.6044 214.218 17.6602 214.323 17.7407C214.429 17.8212 214.516 17.9242 214.577 18.0424C214.638 18.1605 214.672 18.2908 214.676 18.4237V19.054C214.677 19.1291 214.704 19.2014 214.753 19.2588C214.801 19.3162 214.867 19.3552 214.941 19.3692C215.182 19.4038 215.413 19.493 215.614 19.63C215.816 19.767 215.984 19.9482 216.106 20.1599C216.135 20.2196 216.182 20.2687 216.24 20.3004C216.299 20.3321 216.365 20.3448 216.431 20.3368L216.685 20.2816C216.75 20.265 216.807 20.228 216.849 20.1762C216.89 20.1244 216.914 20.0606 216.917 19.994C216.952 19.6498 217.095 19.3256 217.326 19.0682C217.557 18.8109 217.863 18.6337 218.201 18.5623C218.539 18.4909 218.891 18.529 219.206 18.6711C219.521 18.8131 219.783 19.0518 219.953 19.3526C219.981 19.4119 220.027 19.4607 220.085 19.4925C220.142 19.5242 220.208 19.5372 220.273 19.5296L220.538 19.4743C220.602 19.4567 220.658 19.4193 220.698 19.3676C220.739 19.3159 220.762 19.2526 220.765 19.1867C220.792 18.944 220.874 18.7107 221.005 18.5046C221.136 18.2986 221.313 18.1253 221.521 17.998C221.582 17.954 221.626 17.891 221.647 17.8188C221.668 17.7467 221.664 17.6697 221.637 17.5998L221.41 17.0137C221.364 16.8929 221.344 16.7633 221.352 16.634C221.36 16.5046 221.397 16.3787 221.459 16.265C221.521 16.1512 221.607 16.0524 221.711 15.9755C221.815 15.8985 221.935 15.8452 222.062 15.8194L222.398 15.7475C222.581 15.7086 222.753 15.6333 222.906 15.526C223.058 15.4188 223.188 15.2818 223.286 15.1233C223.384 14.9648 223.45 14.7881 223.479 14.6037C223.507 14.4193 223.498 14.231 223.453 14.05C223.345 13.7021 223.11 13.4078 222.795 13.2262C222.479 13.0447 222.107 12.9894 221.753 13.0713L208.604 15.8083L208.505 15.6369C207.976 14.6949 207.156 13.9507 206.168 13.5168C205.181 13.0828 204.078 12.9828 203.029 13.2317L203.001 13.2206ZM204.105 21.6694C203.42 21.6771 202.746 21.485 202.168 21.1165C201.483 20.6663 200.976 19.9923 200.732 19.2093C200.488 18.4263 200.523 17.5829 200.83 16.8227C201.138 16.0625 201.699 15.4327 202.418 15.0406C203.137 14.6485 203.97 14.5184 204.774 14.6725C205.579 14.8266 206.305 15.2553 206.829 15.8856C207.353 16.5158 207.642 17.3087 207.648 18.1289C207.654 18.9491 207.375 19.7459 206.86 20.3834C206.345 21.021 205.625 21.4598 204.823 21.6252C204.588 21.6678 204.349 21.6863 204.111 21.6805L204.105 21.6694ZM204.105 15.1393C203.9 15.1405 203.694 15.1608 203.492 15.2001C203.108 15.2822 202.743 15.4393 202.419 15.6625C202.095 15.8857 201.819 16.1707 201.605 16.5011C201.391 16.8315 201.244 17.2009 201.172 17.5881C201.101 17.9754 201.106 18.373 201.188 18.7582C201.27 19.1434 201.427 19.5087 201.649 19.8332C201.872 20.1577 202.157 20.435 202.487 20.6494C202.816 20.8637 203.185 21.0109 203.572 21.0825C203.959 21.1541 204.355 21.1488 204.74 21.0667C205.317 20.9463 205.846 20.6574 206.26 20.2365C206.673 19.8155 206.953 19.2813 207.064 18.7012C207.175 18.1211 207.112 17.521 206.883 16.9767C206.654 16.4324 206.27 15.9681 205.778 15.6425C205.289 15.3169 204.714 15.1455 204.127 15.1504L204.105 15.1393Z" fill="white"/>
<path opacity="0.6" d="M195.08 37.5C198.696 37.5 201.627 35.6284 201.627 33.3198C201.627 31.0112 198.696 29.1396 195.08 29.1396C191.464 29.1396 188.533 31.0112 188.533 33.3198C188.533 35.6284 191.464 37.5 195.08 37.5Z" fill="#5B9FFA"/>
<path opacity="0.3" d="M184.664 39.2138C186.148 39.2138 187.352 38.4464 187.352 37.4997C187.352 36.5531 186.148 35.7856 184.664 35.7856C183.179 35.7856 181.975 36.5531 181.975 37.4997C181.975 38.4464 183.179 39.2138 184.664 39.2138Z" fill="#5B9FFA"/>
</svg>
