<svg width="269" height="200" viewBox="0 0 269 200" fill="none" xmlns="http://www.w3.org/2000/svg">
<path d="M192.697 63.7587C182.702 54.579 172.148 66.5663 161.357 66.7166C148.42 66.8991 144.383 61.3483 136.207 52.5927C124.145 39.6713 111.642 22.9438 92.1175 23.4538C39.6803 24.828 41.2371 87.5347 69.7587 116.609C88.2631 135.463 108.491 130.373 131.891 132.778C152.988 134.926 186.255 152.228 207.122 140.75C225.707 130.524 220.419 103.436 202.29 95.9522C196.423 93.5311 192.982 87.9481 193.76 81.5921C194.485 75.6172 198.055 68.6707 192.697 63.7587Z" fill="#5B9FFA"/>
<path opacity="0.9" d="M192.697 63.7587C182.702 54.579 172.148 66.5663 161.357 66.7166C148.42 66.8991 144.383 61.3483 136.207 52.5927C124.145 39.6713 111.642 22.9438 92.1175 23.4538C39.6803 24.828 41.2371 87.5347 69.7587 116.609C88.2631 135.463 108.491 130.373 131.891 132.778C152.988 134.926 186.255 152.228 207.122 140.75C225.707 130.524 220.419 103.436 202.29 95.9522C196.423 93.5311 192.982 87.9481 193.76 81.5921C194.485 75.6172 198.055 68.6707 192.697 63.7587Z" fill="white"/>
<path d="M134.5 200C191.985 200 238.585 197.279 238.585 193.923C238.585 190.567 191.985 187.846 134.5 187.846C77.0153 187.846 30.4148 190.567 30.4148 193.923C30.4148 197.279 77.0153 200 134.5 200Z" fill="#F5F5F5"/>
<path d="M99.3863 193.923H82.4709C81.833 193.923 81.2213 193.67 80.7703 193.219C80.3193 192.768 80.0659 192.156 80.0659 191.518V162.041H101.791V191.524C101.79 192.161 101.536 192.771 101.085 193.221C100.634 193.671 100.023 193.923 99.3863 193.923Z" fill="#5B9FFA"/>
<path opacity="0.2" d="M101.791 162.041H80.071V174.834L101.791 170.126V162.041Z" fill="black"/>
<path d="M111.137 123.368C111.137 115.253 114.361 107.47 120.099 101.731C125.838 95.9929 133.621 92.769 141.736 92.769C149.852 92.769 157.635 95.9929 163.373 101.731C169.112 107.47 172.335 115.253 172.335 123.368V162.02H111.137V123.368Z" fill="#5B9FFA"/>
<path opacity="0.3" d="M111.137 123.368C111.137 115.253 114.361 107.47 120.099 101.731C125.838 95.9929 133.621 92.769 141.736 92.769C149.852 92.769 157.635 95.9929 163.373 101.731C169.112 107.47 172.335 115.253 172.335 123.368V162.02H111.137V123.368Z" fill="black"/>
<path d="M39.1006 123.363V158.23C39.1006 158.731 39.1994 159.227 39.3912 159.689C39.5831 160.152 39.8643 160.573 40.2188 160.927C40.5733 161.281 40.9941 161.561 41.4572 161.753C41.9202 161.944 42.4164 162.042 42.9174 162.041H111.137V123.363C111.137 115.247 114.361 107.464 120.1 101.726C125.838 95.9875 133.621 92.7637 141.736 92.7637H69.6997C61.5843 92.7637 53.8013 95.9875 48.0629 101.726C42.3244 107.464 39.1006 115.247 39.1006 123.363Z" fill="#5B9FFA"/>
<path opacity="0.2" d="M39.1058 150.628H111.143V139.891H39.1058V150.628Z" fill="black"/>
<path opacity="0.2" d="M39.1058 136.558H111.143V125.821L39.1058 125.821V136.558Z" fill="black"/>
<path d="M115.652 90.8848H106.886V91.4216H115.652V90.8848Z" fill="#5B9FFA"/>
<path d="M102.29 90.8848H97.5771V91.4216H102.29V90.8848Z" fill="#5B9FFA"/>
<path d="M74.3326 133.423V89.9399C74.3326 89.7665 74.2949 89.5952 74.222 89.4379C74.149 89.2807 74.0427 89.1412 73.9103 89.0293C73.7779 88.9173 73.6227 88.8356 73.4555 88.7899C73.2883 88.7441 73.1131 88.7353 72.9422 88.7642L57.7661 91.2605V97.5574H69.3669V133.326C68.1954 133.864 67.2412 134.784 66.6601 135.935C66.0791 137.086 65.9056 138.399 66.1681 139.662C66.4305 140.924 67.1134 142.06 68.1051 142.883C69.0968 143.707 70.3386 144.17 71.6275 144.196C72.9164 144.223 74.1762 143.811 75.2008 143.029C76.2255 142.247 76.9545 141.14 77.2686 139.89C77.5827 138.639 77.4633 137.319 76.93 136.146C76.3967 134.972 75.481 134.014 74.3326 133.428V133.423Z" fill="#263238"/>
<path d="M115.491 166.416H193.996C194.569 166.418 195.12 166.193 195.528 165.791C195.936 165.389 196.169 164.842 196.176 164.269C196.176 163.691 195.946 163.136 195.537 162.728C195.129 162.319 194.574 162.089 193.996 162.089H111.137C111.144 163.239 111.606 164.34 112.422 165.151C113.238 165.961 114.341 166.416 115.491 166.416Z" fill="#5B9FFA"/>
<path opacity="0.2" d="M115.491 166.416H147.572C148.145 166.418 148.695 166.193 149.103 165.791C149.511 165.389 149.744 164.842 149.751 164.269C149.751 163.691 149.521 163.136 149.113 162.728C148.704 162.319 148.15 162.089 147.572 162.089H111.137C111.144 163.239 111.606 164.34 112.422 165.151C113.238 165.961 114.341 166.416 115.491 166.416Z" fill="black"/>
<path d="M190.588 189.167L186.046 189.204L184.806 178.688L189.353 178.65L190.588 189.167Z" fill="#FF8B7B"/>
<path opacity="0.2" d="M184.806 178.693L185.445 184.115L189.992 184.072L189.353 178.656L184.806 178.693Z" fill="black"/>
<path d="M227.5 178.017L223.592 180.336L217.23 171.87L221.138 169.551L227.5 178.017Z" fill="#FF8B7B"/>
<path opacity="0.2" d="M217.236 171.87L220.51 176.235L224.424 173.916L221.144 169.551L217.236 171.87Z" fill="black"/>
<path d="M186.035 188.678L191.001 188.635C191.093 188.636 191.182 188.666 191.255 188.721C191.329 188.776 191.383 188.853 191.409 188.941L192.612 192.973C192.642 193.066 192.65 193.166 192.635 193.263C192.619 193.36 192.581 193.452 192.523 193.532C192.464 193.611 192.388 193.675 192.3 193.719C192.211 193.763 192.114 193.785 192.016 193.783C190.223 193.783 187.63 193.687 185.375 193.708C182.745 193.708 181.574 193.896 178.488 193.923C176.619 193.923 175.965 192.055 176.732 191.878C180.227 191.072 182.036 190.965 184.967 189.043C185.281 188.821 185.652 188.695 186.035 188.678Z" fill="#263238"/>
<path d="M184.162 189.5C184.651 189.49 185.139 189.431 185.617 189.322C185.638 189.319 185.658 189.308 185.673 189.291C185.688 189.274 185.696 189.253 185.697 189.231C185.699 189.209 185.695 189.187 185.684 189.168C185.674 189.149 185.658 189.134 185.638 189.124C185.423 189.016 183.491 188.104 182.991 188.426C182.943 188.457 182.904 188.5 182.878 188.551C182.851 188.602 182.839 188.659 182.841 188.716C182.835 188.818 182.854 188.92 182.896 189.014C182.938 189.107 183.002 189.189 183.083 189.253C183.406 189.45 183.785 189.536 184.162 189.5ZM185.235 189.177C184.253 189.349 183.507 189.312 183.206 189.07C183.154 189.028 183.112 188.973 183.084 188.912C183.056 188.85 183.043 188.783 183.045 188.716C183.043 188.695 183.046 188.675 183.055 188.656C183.063 188.637 183.077 188.621 183.093 188.608C183.389 188.426 184.468 188.812 185.246 189.167L185.235 189.177Z" fill="#5B9FFA"/>
<path d="M185.595 189.317C185.616 189.322 185.638 189.322 185.66 189.317C185.675 189.306 185.687 189.29 185.694 189.272C185.701 189.254 185.702 189.234 185.697 189.215C185.697 189.129 185.343 187.175 184.258 187.299C183.974 187.331 183.893 187.47 183.877 187.588C183.802 188.125 184.951 189.081 185.552 189.328L185.595 189.317ZM184.35 187.486C184.999 187.486 185.327 188.56 185.423 189.011C184.827 188.673 184.028 187.9 184.071 187.599C184.071 187.599 184.071 187.508 184.264 187.486H184.35Z" fill="#5B9FFA"/>
<path d="M192.627 63.6839C192.032 67.1357 191.275 70.4479 190.357 73.7924C189.899 75.4601 189.392 77.1225 188.837 78.7795C188.548 79.6116 188.274 80.4383 187.946 81.265C187.791 81.6784 187.635 82.0917 187.458 82.5051L187.206 83.1278L187.077 83.4338L187.007 83.6002L186.91 83.8095C186.47 84.7586 185.93 85.6583 185.3 86.4937C184.763 87.2506 184.178 87.9485 183.603 88.641C182.455 89.9938 181.257 91.25 180.044 92.4847C177.621 94.9186 175.073 97.2247 172.411 99.3936L169.99 96.9833C172.056 94.3582 174.139 91.7063 176.152 89.0812C177.156 87.7713 178.133 86.44 179.046 85.1248C179.502 84.4698 179.937 83.8095 180.318 83.1654C180.663 82.6169 180.958 82.0384 181.198 81.4368C181.231 81.3724 181.306 81.1147 181.365 80.9429L181.547 80.3739C181.676 80.0035 181.789 79.6169 181.902 79.2304C182.133 78.4628 182.347 77.679 182.567 76.9006C182.986 75.3277 183.378 73.7387 183.759 72.1389C184.5 68.918 185.214 65.6648 185.858 62.4761L192.627 63.6839Z" fill="#FF8B7B"/>
<path d="M194.233 64.3117C193.959 69.4974 191.446 76.7768 191.446 76.7768L184.393 74.0927L181.488 73.019C181.871 69.5857 182.686 66.2145 183.915 62.9857C186.062 57.4564 191.038 56.109 193.578 60.1781C194.168 61.0961 194.324 62.5885 194.233 64.3117Z" fill="#5B9FFA"/>
<path opacity="0.2" d="M194.233 64.312C193.959 69.4977 191.446 76.7771 191.446 76.7771L184.393 74.093C184.812 72.2634 185.361 70.4659 186.035 68.714C187.796 64.108 191.554 62.4063 194.233 64.312Z" fill="black"/>
<path d="M171.133 96.4731L166.344 97.2569L166.307 101.954C166.307 101.954 170.902 101.31 172.7 99.109L171.133 96.4731Z" fill="#FF8B7B"/>
<path d="M161.91 99.9785L162.012 103.065L166.307 101.954L166.339 97.2568L161.91 99.9785Z" fill="#FF8B7B"/>
<path d="M189.192 97.2567C189.192 97.2567 182.369 122.096 180.56 135.999C178.681 150.462 183.115 181.474 183.115 181.474L191.323 181.297C191.323 181.297 191.94 149.683 194.625 135.463C197.566 119.964 203.171 96.9561 203.171 96.9561L189.192 97.2567Z" fill="#263238"/>
<path d="M192.332 181.667L182.68 181.861L181.971 178.656L192.209 178.629L192.332 181.667Z" fill="#5B9FFA"/>
<path opacity="0.4" d="M192.332 181.667L182.68 181.861L181.971 178.656L192.209 178.629L192.332 181.667Z" fill="white"/>
<path d="M223.318 179.885L227.586 177.351C227.668 177.298 227.767 177.275 227.865 177.286C227.962 177.297 228.053 177.34 228.123 177.41L231.188 180.288C231.262 180.353 231.32 180.435 231.356 180.527C231.392 180.62 231.405 180.719 231.395 180.817C231.384 180.916 231.35 181.01 231.295 181.093C231.241 181.175 231.167 181.243 231.081 181.291C229.524 182.183 227.242 183.439 225.304 184.561C223.044 185.908 222.083 186.638 219.458 188.211C217.848 189.167 216.339 187.873 216.914 187.331C219.528 184.872 221.036 183.868 222.604 180.739C222.755 180.391 223.003 180.095 223.318 179.885Z" fill="#263238"/>
<path d="M222.105 181.528C222.522 181.272 222.913 180.977 223.275 180.648C223.291 180.632 223.302 180.612 223.306 180.59C223.311 180.568 223.31 180.545 223.302 180.524C223.294 180.503 223.279 180.485 223.259 180.474C223.24 180.462 223.217 180.457 223.195 180.46C222.953 180.46 220.843 180.642 220.559 181.19C220.528 181.239 220.512 181.296 220.512 181.354C220.512 181.411 220.528 181.468 220.559 181.517C220.606 181.604 220.673 181.679 220.754 181.736C220.835 181.793 220.928 181.83 221.026 181.845C221.41 181.86 221.789 181.749 222.105 181.528ZM222.883 180.701C222.121 181.345 221.455 181.689 221.074 181.63C221.008 181.62 220.945 181.595 220.89 181.557C220.835 181.519 220.79 181.468 220.757 181.41C220.746 181.391 220.74 181.37 220.74 181.348C220.74 181.326 220.746 181.305 220.757 181.286C220.929 180.997 222.03 180.787 222.883 180.701Z" fill="#5B9FFA"/>
<path d="M223.259 180.658C223.277 180.644 223.292 180.625 223.302 180.604C223.312 180.588 223.318 180.57 223.318 180.551C223.318 180.532 223.312 180.513 223.302 180.497C223.248 180.433 221.965 178.887 221.095 179.563C220.865 179.735 220.865 179.901 220.907 180.009C221.101 180.486 222.604 180.749 223.232 180.674L223.259 180.658ZM221.262 179.703C221.825 179.375 222.641 180.127 222.974 180.47C222.282 180.47 221.208 180.212 221.09 179.933C221.09 179.933 221.058 179.853 221.203 179.745L221.262 179.703Z" fill="#5B9FFA"/>
<path d="M197.679 97.0745C197.679 97.0745 197.679 121.479 198.318 135.484C198.973 150.054 217.171 175.124 217.171 175.124L224.177 170.829C224.177 170.829 211.884 146.973 212.072 132.505C212.275 116.728 213.499 96.7202 213.499 96.7202L197.679 97.0745Z" fill="#263238"/>
<path d="M225.079 170.824L217.321 175.558L215.384 173.631L223.919 167.941L225.079 170.824Z" fill="#5B9FFA"/>
<path opacity="0.4" d="M225.079 170.824L217.321 175.558L215.384 173.631L223.919 167.941L225.079 170.824Z" fill="white"/>
<path d="M188.628 57.9771C188.628 57.9771 183.555 71.8165 189.192 97.2621L213.499 96.7252C213.585 92.9943 210.853 74.8442 214.079 57.188C211.373 56.7352 208.64 56.4608 205.898 56.3667C202.454 56.2372 199.005 56.3107 195.569 56.5868C193.223 56.8687 190.902 57.3336 188.628 57.9771Z" fill="#5B9FFA"/>
<path d="M204.647 44.7339C204.067 48.0676 203.547 54.1767 205.919 56.3454C205.919 56.3454 205.082 59.7543 198.908 59.867C193.975 59.9583 195.591 56.5655 195.591 56.5655C199.279 55.5992 199.123 52.8507 198.42 50.2847L204.647 44.7339Z" fill="#FF8B7B"/>
<path opacity="0.2" d="M202.108 46.9937L198.425 50.279C198.597 50.8758 198.716 51.4866 198.78 52.1042C200.191 51.8734 202.108 50.2737 202.226 48.7867C202.296 48.1868 202.256 47.5791 202.108 46.9937Z" fill="black"/>
<path opacity="0.2" d="M208.657 65.9922L212.71 68.9125C212.533 72.0207 212.479 75.0431 212.506 77.8775C210.021 75.3759 208.63 70.7753 208.657 65.9922Z" fill="black"/>
<path d="M205.034 54.6865C205.034 54.6865 203.869 57.4888 198.431 59.8723C199.305 60.2236 200.097 60.7537 200.755 61.4284C201.413 62.1032 201.923 62.9079 202.253 63.7911C202.253 63.7911 206.209 60.0333 207.267 56.2755L205.034 54.6865Z" fill="white"/>
<path d="M194.367 62.7764C194.367 62.7764 196.031 60.3607 198.431 59.8722C197.588 58.8415 196.718 56.5546 197.523 55.4702C196.816 55.6567 196.131 55.9177 195.478 56.2486C195.478 56.2486 192.214 58.208 194.367 62.7764Z" fill="white"/>
<path d="M193.889 35.1888C191.672 36.139 190.571 42.1085 193.46 43.4076C196.348 44.7067 198.087 33.3958 193.889 35.1888Z" fill="#263238"/>
<path d="M204.937 39.725C204.754 44.2344 204.878 46.8809 202.655 49.2376C199.311 52.786 193.712 50.8481 192.542 46.3763C191.468 42.3501 191.962 35.6398 196.326 33.7716C197.287 33.351 198.34 33.1831 199.384 33.2838C200.428 33.3845 201.429 33.7505 202.292 34.3471C203.155 34.9436 203.85 35.7509 204.313 36.6922C204.776 37.6334 204.991 38.6775 204.937 39.725Z" fill="#FF8B7B"/>
<path d="M198.135 41.1262C198.135 41.4912 197.958 41.7919 197.717 41.7972C197.475 41.8026 197.276 41.5073 197.271 41.1423C197.266 40.7773 197.448 40.4766 197.69 40.4713C197.931 40.4659 198.13 40.7558 198.135 41.1262Z" fill="#263238"/>
<path d="M193.991 41.2121C193.991 41.5772 193.814 41.8778 193.572 41.8832C193.331 41.8885 193.132 41.5986 193.127 41.2282C193.121 40.8578 193.304 40.5626 193.546 40.5572C193.787 40.5518 193.986 40.8471 193.991 41.2121Z" fill="#263238"/>
<path d="M195.317 41.3677C194.903 42.4973 194.336 43.5649 193.631 44.5403C193.885 44.7136 194.174 44.8293 194.477 44.8794C194.78 44.9294 195.091 44.9127 195.387 44.8302L195.317 41.3677Z" fill="#FF5652"/>
<path d="M196.477 45.818C196.97 45.8221 197.457 45.7071 197.896 45.4828C198.335 45.2585 198.714 44.9315 199 44.5296C199.007 44.5178 199.012 44.5045 199.015 44.4906C199.017 44.4768 199.016 44.4626 199.013 44.4489C199.009 44.4353 199.003 44.4226 198.994 44.4115C198.985 44.4005 198.975 44.3913 198.962 44.3847C198.938 44.3703 198.91 44.3657 198.883 44.3717C198.856 44.3777 198.833 44.3939 198.817 44.4169C198.547 44.7849 198.193 45.084 197.786 45.2901C197.378 45.4962 196.928 45.6035 196.471 45.6033C196.457 45.604 196.443 45.6074 196.431 45.6135C196.418 45.6195 196.406 45.628 196.397 45.6385C196.387 45.649 196.38 45.6612 196.375 45.6745C196.371 45.6878 196.369 45.7019 196.369 45.716C196.371 45.7436 196.383 45.7695 196.403 45.7885C196.423 45.8075 196.449 45.818 196.477 45.818Z" fill="#263238"/>
<path d="M199.354 39.7628C199.403 39.7613 199.45 39.7444 199.488 39.7145C199.532 39.6788 199.56 39.6271 199.566 39.5708C199.572 39.5145 199.556 39.4581 199.52 39.4139C199.314 39.1408 199.046 38.9209 198.738 38.7724C198.43 38.6239 198.091 38.5512 197.749 38.5603C197.692 38.5653 197.639 38.5927 197.602 38.6365C197.566 38.6803 197.548 38.7369 197.553 38.7938C197.558 38.8508 197.585 38.9034 197.629 38.9402C197.673 38.9769 197.729 38.9948 197.786 38.9898C198.057 38.9873 198.324 39.0481 198.566 39.1675C198.808 39.2868 199.019 39.4613 199.182 39.6769C199.202 39.7039 199.228 39.7258 199.258 39.7407C199.287 39.7557 199.32 39.7633 199.354 39.7628Z" fill="#263238"/>
<path d="M192.144 39.8273C192.186 39.8268 192.226 39.8151 192.261 39.7933C192.296 39.7715 192.324 39.7406 192.343 39.7038C192.449 39.4523 192.614 39.2301 192.824 39.0562C193.035 38.8823 193.284 38.7619 193.551 38.7053C193.608 38.696 193.658 38.665 193.692 38.6189C193.726 38.5728 193.741 38.5152 193.733 38.4584C193.723 38.4024 193.692 38.3524 193.646 38.3186C193.6 38.2847 193.543 38.2694 193.487 38.2758C193.152 38.3476 192.84 38.498 192.576 38.7146C192.312 38.9313 192.103 39.2078 191.967 39.5213C191.955 39.5465 191.947 39.5741 191.946 39.6023C191.944 39.6305 191.948 39.6587 191.958 39.6853C191.967 39.7119 191.982 39.7362 192.001 39.757C192.02 39.7777 192.043 39.7943 192.069 39.8058C192.093 39.8177 192.118 39.825 192.144 39.8273Z" fill="#263238"/>
<path d="M214.858 60.3931C215.872 61.8532 216.763 63.2812 217.681 64.7521C218.599 66.223 219.447 67.7046 220.29 69.2078C221.999 72.252 223.519 75.3984 224.843 78.6291C225.014 79.0317 225.165 79.4611 225.32 79.8799L225.557 80.5133L225.675 80.8354L225.814 81.2756C226.156 82.4326 226.28 83.6432 226.179 84.8455C225.967 86.9464 225.267 88.9685 224.134 90.7506C223.148 92.3418 221.975 93.8089 220.639 95.1204C220 95.7646 219.324 96.3604 218.637 96.9348C217.941 97.5094 217.215 98.0469 216.463 98.5453L214.278 95.9256C214.756 95.3888 215.298 94.7231 215.781 94.1058C216.264 93.4884 216.736 92.8281 217.182 92.1839C218.051 90.9459 218.797 89.6262 219.41 88.2436C219.944 87.0928 220.224 85.8404 220.231 84.5717C220.212 84.0874 220.11 83.6099 219.931 83.1599L219.501 82.2043C219.335 81.85 219.184 81.4903 219.002 81.1307C217.617 78.2586 216.017 75.4027 214.337 72.579C212.657 69.7553 210.896 66.9209 209.151 64.2099L214.858 60.3931Z" fill="#FF8B7B"/>
<path d="M214.079 57.1988C218.326 58.1168 224.435 71.2153 224.435 71.2153L213.059 76.7661C211.036 73.6719 209.355 70.3672 208.045 66.91C206.064 61.3753 209.532 56.211 214.079 57.1988Z" fill="#5B9FFA"/>
<path d="M210.037 90.8849L221.466 124.646C221.91 125.971 221.812 127.418 221.194 128.671C220.575 129.924 219.486 130.881 218.164 131.335L141.339 157.382C140.013 157.827 138.564 157.728 137.311 157.107C136.057 156.486 135.1 155.394 134.65 154.069L123.227 120.319C123.007 119.679 122.915 119.003 122.958 118.327C123.02 117.279 123.392 116.272 124.028 115.435C124.664 114.599 125.534 113.971 126.528 113.63L203.37 87.5834C204.365 87.2486 205.437 87.2179 206.449 87.4952C207.462 87.7725 208.369 88.3452 209.055 89.1403C209.494 89.6513 209.828 90.2442 210.037 90.8849Z" fill="#5B9FFA"/>
<path opacity="0.8" d="M210.037 90.8849L221.466 124.646C221.91 125.971 221.812 127.418 221.194 128.671C220.575 129.924 219.486 130.881 218.164 131.335L141.339 157.382C140.013 157.827 138.564 157.728 137.311 157.107C136.057 156.486 135.1 155.394 134.65 154.069L123.227 120.319C123.007 119.679 122.915 119.003 122.958 118.327C123.02 117.279 123.392 116.272 124.028 115.435C124.664 114.599 125.534 113.971 126.528 113.63L203.37 87.5834C204.365 87.2486 205.437 87.2179 206.449 87.4952C207.462 87.7725 208.369 88.3452 209.055 89.1403C209.494 89.6513 209.828 90.2442 210.037 90.8849Z" fill="white"/>
<path opacity="0.6" d="M209.033 89.1399L177.247 117.565C175.65 118.992 173.78 120.082 171.75 120.77C169.721 121.457 167.574 121.727 165.437 121.564L122.931 118.343C122.993 117.294 123.365 116.288 124.001 115.451C124.637 114.615 125.507 113.986 126.501 113.646L203.343 87.5992C204.337 87.2614 205.409 87.2275 206.423 87.5019C207.436 87.7764 208.345 88.3466 209.033 89.1399Z" fill="#5B9FFA"/>
<path d="M215.427 95.2974L210.542 95.3296L213.553 100.263C213.553 100.263 217.032 99.4202 217.354 97.6701L215.427 95.2974Z" fill="#FF8B7B"/>
<path d="M207.487 98.2231L210.166 102.19L213.553 100.263L210.541 95.3296L207.487 98.2231Z" fill="#FF8B7B"/>
<path d="M208.013 36.1125C209.087 39.0543 205.839 45.8667 203.949 45.7378C202.06 45.609 201.544 38.5282 202.618 36.7675C201.598 37.2399 191.881 37.256 191.93 36.2306C192.177 32.5051 198.785 31.1522 206.032 33.0097C207.916 32.9184 208.62 33.4338 208.013 36.1125Z" fill="#263238"/>
<path d="M207.073 44.637C206.786 45.1199 206.405 45.5409 205.954 45.8754C205.502 46.2099 204.989 46.4514 204.443 46.5857C202.983 46.94 202.296 45.6248 202.757 44.272C203.16 43.0534 204.405 41.4053 205.855 41.6523C207.304 41.8992 207.782 43.4399 207.073 44.637Z" fill="#FF8B7B"/>
<path d="M186.137 34.3571L208.437 36.9339C208.549 36.946 208.662 36.9133 208.75 36.843C208.839 36.7726 208.896 36.6703 208.909 36.5581C208.922 36.4465 208.89 36.3347 208.821 36.2464C208.751 36.1581 208.65 36.1004 208.539 36.0857L186.234 33.5143C186.122 33.5021 186.011 33.534 185.922 33.6032C185.834 33.6724 185.776 33.7735 185.762 33.8847C185.749 33.997 185.782 34.1096 185.852 34.198C185.923 34.2865 186.025 34.3436 186.137 34.3571Z" fill="#5B9FFA"/>
<path d="M208.909 36.5365L209.296 33.2081C209.292 32.8442 209.152 32.495 208.904 32.2288C208.655 31.9627 208.317 31.7989 207.954 31.7694L194.259 29.1819C193.245 28.9887 192.311 29.5577 192.316 30.363V34.6254L208.909 36.5365Z" fill="#5B9FFA"/>
<path d="M193.594 33.6431L199.392 34.3142L199.59 32.6232L193.599 31.936L193.594 33.6431Z" fill="white"/>
</svg>
