<svg width="277" height="206" viewBox="0 0 277 206" fill="none" xmlns="http://www.w3.org/2000/svg">
<path d="M234.548 116.292C240.117 141.727 224.562 158.16 203.023 157.397C192.695 157.032 180.363 145.658 170.223 143.126C156.975 139.808 145.516 144.105 132.858 144.735C101.367 146.294 101.781 133.422 80.5619 116.823C65.6579 105.156 41.6072 106.434 33.6419 86.0027C23.8825 61.0268 51.8579 48.9563 73.1099 52.661C97.5304 56.9075 104.292 26.452 141.591 29.8249C178.244 33.1425 226.704 77.9631 234.548 116.292Z" fill="#5B9FFA"/>
<path opacity="0.9" d="M234.548 116.292C240.117 141.727 224.562 158.16 203.023 157.397C192.695 157.032 180.363 145.658 170.223 143.126C156.975 139.808 145.516 144.105 132.858 144.735C101.367 146.294 101.781 133.422 80.5619 116.823C65.6579 105.156 41.6072 106.434 33.6419 86.0027C23.8825 61.0268 51.8579 48.9563 73.1099 52.661C97.5304 56.9075 104.292 26.452 141.591 29.8249C178.244 33.1425 226.704 77.9631 234.548 116.292Z" fill="white"/>
<path d="M138.5 206C197.609 206 245.527 203.197 245.527 199.741C245.527 196.284 197.609 193.481 138.5 193.481C79.3904 193.481 31.4727 196.284 31.4727 199.741C31.4727 203.197 79.3904 206 138.5 206Z" fill="#F5F5F5"/>
<path d="M144.247 171.685H73.8279C72.6955 171.669 71.6111 171.224 70.7921 170.441C69.9731 169.657 69.4801 168.593 69.4119 167.46L63.097 44.9584C63.062 44.4135 63.1398 43.8672 63.3254 43.3538C63.511 42.8404 63.8005 42.371 64.1757 41.9749C64.5509 41.5788 65.0037 41.2646 65.5058 41.0521C66.0079 40.8395 66.5485 40.7331 67.0935 40.7395H137.512C138.644 40.7542 139.728 41.1974 140.548 41.98C141.367 42.7625 141.86 43.8266 141.928 44.9584L148.232 167.46C148.267 168.004 148.189 168.55 148.005 169.063C147.82 169.576 147.531 170.045 147.157 170.442C146.783 170.838 146.332 171.153 145.831 171.367C145.33 171.581 144.791 171.689 144.247 171.685Z" fill="#5B9FFA"/>
<path opacity="0.8" d="M144.247 171.685H73.8279C72.6955 171.669 71.6111 171.224 70.7921 170.441C69.9731 169.657 69.4801 168.593 69.4119 167.46L63.097 44.9584C63.062 44.4135 63.1398 43.8672 63.3254 43.3538C63.511 42.8404 63.8005 42.371 64.1757 41.9749C64.5509 41.5788 65.0037 41.2646 65.5058 41.0521C66.0079 40.8395 66.5485 40.7331 67.0935 40.7395H137.512C138.644 40.7542 139.728 41.1974 140.548 41.98C141.367 42.7625 141.86 43.8266 141.928 44.9584L148.232 167.46C148.267 168.004 148.189 168.55 148.005 169.063C147.82 169.576 147.531 170.045 147.157 170.442C146.783 170.838 146.332 171.153 145.831 171.367C145.33 171.581 144.791 171.689 144.247 171.685Z" fill="white"/>
<path d="M130.563 36.7476H122.774V37.3005H130.563V36.7476Z" fill="#5B9FFA"/>
<path d="M120.075 36.7476H117.221V37.3005H120.075V36.7476Z" fill="#5B9FFA"/>
<path d="M147.277 163.911H79.9332C78.8487 163.9 77.8085 163.479 77.0219 162.731C76.2353 161.983 75.7608 160.964 75.6939 159.88L69.666 42.7139C69.6325 42.1925 69.7069 41.6697 69.8846 41.1784C70.0623 40.6871 70.3394 40.2378 70.6986 39.8588C71.0578 39.4799 71.4912 39.1793 71.9718 38.976C72.4524 38.7727 72.9697 38.6711 73.4914 38.6775H140.835C141.92 38.6895 142.959 39.1126 143.745 39.8615C144.531 40.6104 145.004 41.6296 145.069 42.7139L151.097 159.88C151.131 160.401 151.056 160.923 150.879 161.413C150.701 161.904 150.425 162.353 150.066 162.731C149.707 163.11 149.275 163.41 148.795 163.613C148.315 163.816 147.798 163.917 147.277 163.911Z" fill="#5B9FFA"/>
<path d="M147.277 161.218H79.9329C79.538 161.204 79.1618 161.046 78.8759 160.773C78.5899 160.5 78.4141 160.131 78.3818 159.736L72.3485 42.5756C72.3348 42.4197 72.3543 42.2627 72.4057 42.115C72.4571 41.9673 72.5392 41.8321 72.6465 41.7185C72.7542 41.6052 72.8847 41.516 73.0293 41.4569C73.174 41.3978 73.3295 41.3701 73.4856 41.3757H140.83C141.224 41.3906 141.598 41.5497 141.883 41.8227C142.168 42.0958 142.343 42.4639 142.375 42.8576L148.436 160.018C148.449 160.173 148.43 160.33 148.379 160.477C148.327 160.624 148.246 160.759 148.139 160.872C148.032 160.985 147.902 161.075 147.759 161.134C147.615 161.194 147.46 161.222 147.305 161.218H147.277ZM73.4856 41.5139C73.3484 41.5095 73.2117 41.5337 73.0843 41.5852C72.957 41.6366 72.8417 41.714 72.7459 41.8125C72.6538 41.9146 72.5832 42.0344 72.5387 42.1646C72.4941 42.2948 72.4763 42.4328 72.4865 42.57L78.5143 159.731C78.545 160.089 78.7056 160.425 78.9659 160.673C79.2262 160.922 79.5681 161.066 79.9274 161.08H147.271C147.408 161.085 147.544 161.061 147.671 161.01C147.797 160.958 147.911 160.88 148.006 160.781C148.1 160.681 148.172 160.561 148.217 160.43C148.261 160.3 148.278 160.161 148.265 160.024L142.243 42.8631C142.213 42.5047 142.054 42.1696 141.794 41.921C141.535 41.6724 141.194 41.5276 140.835 41.5139H73.4856Z" fill="white"/>
<path opacity="0.3" d="M123.721 84.0763C131.381 76.2029 130.882 63.2722 122.607 55.1948C114.332 47.1173 101.415 46.9518 93.7552 54.8251C86.0956 62.6985 86.5944 75.6291 94.8693 83.7066C103.144 91.7841 116.062 91.9496 123.721 84.0763Z" fill="white"/>
<path d="M125.252 69.4537C125.406 72.1709 124.861 74.8822 123.668 77.3274C122.376 79.95 120.371 82.1538 117.884 83.6848C115.396 85.2158 112.528 86.0117 109.608 85.9808C106.583 85.9535 103.616 85.1422 100.997 83.6257C98.3772 82.1093 96.1942 79.9395 94.6602 77.3274C93.2305 74.9387 92.4079 72.2351 92.2645 69.4537C92.1284 67.3206 92.4333 65.1823 93.1601 63.1727C93.8869 61.1631 95.0199 59.3254 96.4883 57.7746C97.9567 56.2237 99.7289 54.9932 101.694 54.16C103.659 53.3267 105.774 52.9087 107.908 52.9321C112.349 52.9784 116.607 54.7087 119.826 57.7743C123.044 60.84 124.983 65.0132 125.252 69.4537Z" fill="white"/>
<path d="M123.652 77.327C122.36 79.9496 120.355 82.1534 117.868 83.6844C115.38 85.2154 112.512 86.0113 109.592 85.9804C106.567 85.9531 103.6 85.1418 100.981 83.6254C98.3611 82.109 96.1781 79.9391 94.644 77.327C98.8388 74.4251 103.821 72.8813 108.919 72.9036C114.153 72.9233 119.27 74.4596 123.652 77.327Z" fill="#5B9FFA"/>
<path d="M113.852 69.0693C116.611 66.2327 116.431 61.5731 113.448 58.6618C110.466 55.7505 105.811 55.6899 103.051 58.5265C100.292 61.3631 100.472 66.0227 103.455 68.934C106.437 71.8453 111.092 71.9059 113.852 69.0693Z" fill="#5B9FFA"/>
<path d="M137.622 118.327H84.8898C84.4305 118.322 83.9901 118.143 83.6572 117.826C83.3243 117.509 83.1237 117.078 83.0958 116.618L82.6984 108.877C82.6847 108.657 82.7165 108.437 82.7919 108.229C82.8672 108.022 82.9845 107.832 83.1363 107.673C83.2881 107.513 83.4712 107.386 83.6742 107.3C83.8771 107.215 84.0955 107.172 84.3158 107.174H137.048C137.507 107.179 137.946 107.357 138.279 107.673C138.612 107.989 138.813 108.419 138.842 108.877L139.24 116.618C139.254 116.839 139.223 117.06 139.148 117.268C139.073 117.476 138.956 117.667 138.804 117.827C138.652 117.987 138.469 118.115 138.265 118.201C138.062 118.287 137.843 118.33 137.622 118.327Z" fill="white"/>
<path opacity="0.3" d="M121.476 102.9H99.4517C98.9905 102.897 98.548 102.718 98.2138 102.4C97.8796 102.081 97.6788 101.647 97.6522 101.186L97.5694 99.5275C97.5549 99.3069 97.5861 99.0856 97.6611 98.8776C97.7361 98.6697 97.8532 98.4795 98.0051 98.319C98.157 98.1586 98.3404 98.0313 98.5437 97.9453C98.7471 97.8592 98.966 97.8162 99.1867 97.819H121.206C121.665 97.8237 122.106 98.0026 122.439 98.3196C122.772 98.6367 122.972 99.0683 123 99.5275L123.088 101.186C123.102 101.407 123.07 101.627 122.995 101.835C122.92 102.042 122.804 102.232 122.653 102.393C122.502 102.554 122.319 102.681 122.117 102.769C121.915 102.856 121.697 102.901 121.476 102.9Z" fill="black"/>
<path opacity="0.3" d="M129.668 155.545H96.6753C95.894 155.535 95.1453 155.23 94.5792 154.691C94.0131 154.151 93.6714 153.417 93.6227 152.636L93.4295 148.821C93.41 148.446 93.467 148.071 93.5969 147.719C93.7269 147.367 93.9271 147.045 94.1853 146.772C94.4436 146.5 94.7545 146.284 95.0991 146.136C95.4436 145.988 95.8147 145.912 96.1895 145.913H129.172C129.953 145.922 130.702 146.227 131.268 146.767C131.834 147.306 132.175 148.04 132.224 148.821L132.417 152.636C132.437 153.01 132.38 153.384 132.251 153.736C132.122 154.087 131.922 154.409 131.665 154.681C131.408 154.953 131.099 155.17 130.755 155.318C130.412 155.467 130.042 155.544 129.668 155.545Z" fill="black"/>
<path d="M138.588 137.049H85.8503C85.3914 137.043 84.9517 136.864 84.619 136.547C84.2864 136.23 84.0854 135.8 84.0563 135.341L83.6588 127.6C83.6452 127.379 83.677 127.158 83.7523 126.951C83.8276 126.743 83.9447 126.553 84.0965 126.393C84.2482 126.233 84.4312 126.105 84.6342 126.019C84.8372 125.933 85.0557 125.889 85.2762 125.891H138.009C138.468 125.896 138.909 126.075 139.241 126.392C139.574 126.709 139.775 127.14 139.803 127.6L140.206 135.341C140.219 135.561 140.186 135.782 140.111 135.989C140.035 136.196 139.918 136.386 139.766 136.546C139.615 136.706 139.432 136.833 139.229 136.92C139.027 137.006 138.809 137.05 138.588 137.049Z" fill="white"/>
<path d="M91.5803 112.748C91.5955 112.992 91.5602 113.237 91.4766 113.467C91.3931 113.697 91.2631 113.908 91.0947 114.085C90.9264 114.263 90.7233 114.404 90.4981 114.499C90.273 114.594 90.0307 114.642 89.7863 114.639C89.2785 114.633 88.7919 114.435 88.4243 114.084C88.0566 113.733 87.8352 113.256 87.8046 112.748C87.7886 112.504 87.8231 112.259 87.906 112.029C87.989 111.799 88.1184 111.589 88.2864 111.411C88.4543 111.234 88.6571 111.093 88.8819 110.997C89.1068 110.902 89.3489 110.854 89.5931 110.857C90.1014 110.863 90.5886 111.061 90.9571 111.412C91.3257 111.763 91.5483 112.24 91.5803 112.748Z" fill="#263238"/>
<path d="M97.3926 112.748C97.4086 112.992 97.3741 113.237 97.2912 113.467C97.2082 113.697 97.0788 113.907 96.9108 114.085C96.7429 114.263 96.5401 114.403 96.3153 114.499C96.0904 114.594 95.8483 114.642 95.6041 114.639C95.096 114.634 94.6087 114.436 94.2408 114.085C93.8728 113.734 93.6518 113.256 93.6225 112.748C93.6065 112.504 93.641 112.259 93.7239 112.029C93.8068 111.799 93.9363 111.589 94.1042 111.411C94.2722 111.234 94.4749 111.093 94.6998 110.997C94.9247 110.902 95.1668 110.854 95.4109 110.857C95.9191 110.862 96.4064 111.06 96.7743 111.411C97.1422 111.762 97.3632 112.24 97.3926 112.748Z" fill="#263238"/>
<path d="M103.172 112.748C103.188 112.992 103.154 113.237 103.071 113.467C102.988 113.697 102.858 113.907 102.69 114.085C102.522 114.263 102.32 114.403 102.095 114.499C101.87 114.594 101.628 114.642 101.384 114.639C100.875 114.633 100.388 114.435 100.02 114.084C99.6511 113.734 99.4285 113.256 99.3965 112.748C99.3813 112.504 99.4166 112.259 99.5001 112.029C99.5837 111.799 99.7137 111.588 99.8821 111.411C100.05 111.233 100.254 111.093 100.479 110.997C100.704 110.902 100.946 110.854 101.191 110.857C101.698 110.863 102.185 111.061 102.552 111.412C102.92 111.763 103.142 112.24 103.172 112.748Z" fill="#263238"/>
<path d="M108.996 112.748C109.011 112.992 108.976 113.236 108.893 113.466C108.81 113.696 108.68 113.906 108.512 114.083C108.344 114.261 108.142 114.401 107.918 114.497C107.693 114.593 107.451 114.641 107.207 114.639C106.699 114.633 106.212 114.435 105.843 114.084C105.475 113.733 105.252 113.256 105.22 112.748C105.205 112.504 105.24 112.26 105.323 112.03C105.407 111.8 105.536 111.59 105.704 111.413C105.872 111.235 106.074 111.095 106.299 110.999C106.523 110.903 106.765 110.855 107.009 110.857C107.517 110.863 108.004 111.061 108.373 111.412C108.741 111.763 108.964 112.24 108.996 112.748Z" fill="#263238"/>
<path d="M92.5574 131.459C92.5734 131.703 92.5389 131.948 92.456 132.178C92.3731 132.408 92.2436 132.618 92.0757 132.796C91.9077 132.974 91.705 133.114 91.4801 133.21C91.2552 133.305 91.0131 133.353 90.769 133.35C90.2607 133.344 89.7734 133.146 89.4049 132.795C89.0363 132.444 88.8138 131.967 88.7818 131.459C88.7666 131.215 88.8018 130.97 88.8854 130.74C88.9689 130.51 89.0989 130.299 89.2673 130.122C89.4357 129.944 89.6388 129.804 89.8639 129.708C90.089 129.613 90.3314 129.565 90.5758 129.568C91.0835 129.574 91.5701 129.772 91.9377 130.123C92.3054 130.474 92.5268 130.951 92.5574 131.459Z" fill="#263238"/>
<path d="M98.3586 131.459C98.3737 131.703 98.3386 131.947 98.2554 132.177C98.1722 132.407 98.0427 132.617 97.8749 132.794C97.7071 132.972 97.5047 133.112 97.2802 133.208C97.0558 133.304 96.814 133.352 96.5701 133.35C96.0618 133.344 95.5746 133.146 95.206 132.795C94.8375 132.444 94.6149 131.967 94.5829 131.459C94.5669 131.215 94.6015 130.97 94.6844 130.74C94.7673 130.51 94.8968 130.3 95.0647 130.122C95.2326 129.945 95.4354 129.804 95.6602 129.708C95.8851 129.613 96.1272 129.565 96.3714 129.568C96.8797 129.574 97.3669 129.772 97.7355 130.123C98.104 130.474 98.3266 130.951 98.3586 131.459Z" fill="#263238"/>
<path d="M104.16 131.459C104.176 131.703 104.14 131.948 104.057 132.178C103.973 132.408 103.843 132.619 103.675 132.796C103.506 132.974 103.303 133.114 103.078 133.21C102.853 133.305 102.611 133.353 102.366 133.35C101.858 133.345 101.371 133.147 101.003 132.796C100.635 132.445 100.414 131.967 100.385 131.459C100.369 131.215 100.403 130.97 100.486 130.74C100.569 130.51 100.699 130.3 100.866 130.122C101.034 129.945 101.237 129.804 101.462 129.708C101.687 129.613 101.929 129.565 102.173 129.568C102.681 129.574 103.169 129.772 103.537 130.123C103.906 130.474 104.128 130.951 104.16 131.459Z" fill="#263238"/>
<path d="M109.956 131.459C109.972 131.703 109.938 131.948 109.855 132.178C109.772 132.408 109.643 132.618 109.475 132.796C109.307 132.974 109.104 133.114 108.879 133.21C108.654 133.305 108.412 133.353 108.168 133.35C107.66 133.344 107.172 133.146 106.804 132.795C106.435 132.444 106.213 131.967 106.181 131.459C106.165 131.215 106.201 130.97 106.284 130.74C106.368 130.51 106.498 130.299 106.666 130.122C106.835 129.944 107.038 129.804 107.263 129.708C107.488 129.613 107.73 129.565 107.975 129.568C108.483 129.573 108.97 129.771 109.338 130.122C109.706 130.473 109.927 130.951 109.956 131.459Z" fill="#263238"/>
<path d="M115.758 131.459C115.774 131.703 115.739 131.948 115.656 132.178C115.573 132.408 115.444 132.618 115.276 132.796C115.108 132.973 114.905 133.114 114.68 133.21C114.455 133.305 114.213 133.353 113.969 133.35C113.461 133.344 112.974 133.146 112.605 132.795C112.237 132.444 112.014 131.967 111.982 131.459C111.967 131.215 112.002 130.971 112.085 130.741C112.168 130.511 112.298 130.301 112.466 130.124C112.633 129.946 112.836 129.806 113.06 129.71C113.285 129.614 113.526 129.566 113.77 129.568C114.279 129.574 114.766 129.772 115.135 130.123C115.503 130.474 115.726 130.951 115.758 131.459Z" fill="#263238"/>
<path d="M121.559 131.459C121.574 131.703 121.539 131.948 121.456 132.178C121.372 132.408 121.242 132.619 121.074 132.796C120.905 132.974 120.702 133.114 120.477 133.21C120.252 133.305 120.01 133.353 119.765 133.35C119.258 133.344 118.771 133.146 118.403 132.795C118.036 132.444 117.814 131.967 117.784 131.459C117.768 131.215 117.802 130.97 117.885 130.74C117.968 130.51 118.097 130.3 118.265 130.122C118.433 129.945 118.636 129.804 118.861 129.708C119.086 129.613 119.328 129.565 119.572 129.568C120.08 129.574 120.568 129.772 120.936 130.123C121.305 130.474 121.527 130.951 121.559 131.459Z" fill="#263238"/>
<path d="M184.316 67.2476C184.454 67.4577 184.526 67.5683 184.614 67.7176L184.862 68.1267C185.022 68.4032 185.166 68.6797 185.304 68.9506C185.58 69.5035 185.856 70.0564 186.077 70.6094C186.54 71.7075 186.938 72.8319 187.269 73.9767C187.937 76.2382 188.378 78.561 188.583 80.9105L188.621 81.3473C188.626 81.4357 188.626 81.5243 188.621 81.6127V81.9058C188.631 82.2903 188.609 82.6749 188.555 83.0559C188.449 83.762 188.264 84.4538 188.003 85.1183C187.518 86.3051 186.876 87.421 186.093 88.4359C184.634 90.3083 182.901 91.9504 180.954 93.3072L179.431 91.5212C180.817 89.9528 182.045 88.2507 183.096 86.4398C183.569 85.6183 183.94 84.7418 184.2 83.83C184.305 83.4438 184.366 83.0468 184.382 82.6467C184.399 82.4757 184.399 82.3034 184.382 82.1325V82.0163C184.388 81.9649 184.388 81.913 184.382 81.8615L184.316 81.4745C183.961 79.4138 183.459 77.3812 182.814 75.3922C182.494 74.4025 182.102 73.4459 181.71 72.5115C181.517 72.0415 181.296 71.5825 181.076 71.1402L180.733 70.4877L180.562 70.1836L180.419 69.9403L184.316 67.2476Z" fill="#803E3C"/>
<path d="M179.182 93.3179L181.18 97.5478L182.765 93.9703C182.765 93.9703 181.357 90.8739 179.453 91.1614L179.182 93.3179Z" fill="#7F3E3B"/>
<path d="M182.61 97.7583L184.2 95.1485L182.765 93.9707L181.181 97.5482L182.61 97.7583Z" fill="#7F3E3B"/>
<path d="M173.624 195.306C174.037 195.296 174.448 195.24 174.849 195.14C174.869 195.134 174.888 195.123 174.902 195.107C174.917 195.092 174.927 195.073 174.932 195.052C174.935 195.031 174.932 195.009 174.923 194.989C174.915 194.969 174.9 194.953 174.882 194.941C174.722 194.836 173.32 193.929 172.779 194.173C172.719 194.201 172.668 194.244 172.63 194.298C172.592 194.353 172.569 194.416 172.564 194.482C172.547 194.582 172.555 194.685 172.587 194.781C172.618 194.878 172.673 194.965 172.746 195.035C172.996 195.229 173.308 195.325 173.624 195.306ZM174.534 194.98C173.734 195.146 173.127 195.118 172.878 194.903C172.828 194.852 172.79 194.79 172.77 194.721C172.75 194.652 172.747 194.58 172.762 194.51C172.762 194.416 172.818 194.388 172.856 194.372C173.154 194.239 173.966 194.632 174.534 194.98Z" fill="#5B9FFA"/>
<path d="M174.821 195.14H174.877C174.893 195.129 174.907 195.115 174.917 195.097C174.926 195.08 174.932 195.061 174.932 195.041C174.932 194.985 174.932 193.653 174.424 193.205C174.362 193.149 174.288 193.107 174.208 193.082C174.128 193.057 174.043 193.05 173.96 193.061C173.873 193.062 173.789 193.092 173.722 193.148C173.655 193.203 173.608 193.28 173.591 193.365C173.486 193.891 174.325 194.886 174.766 195.14H174.821ZM174.032 193.266C174.077 193.265 174.121 193.272 174.163 193.288C174.205 193.304 174.243 193.329 174.275 193.36C174.566 193.79 174.717 194.3 174.706 194.82C174.264 194.466 173.74 193.714 173.806 193.398C173.806 193.349 173.844 193.282 173.982 193.266H174.032Z" fill="#5B9FFA"/>
<path d="M168.413 193.05C168.426 193.034 168.434 193.015 168.437 192.994C168.44 192.974 168.438 192.953 168.43 192.933C168.422 192.914 168.409 192.898 168.392 192.885C168.376 192.872 168.356 192.865 168.336 192.862C168.109 192.862 166.128 192.768 165.675 193.255V193.288C165.638 193.336 165.613 193.393 165.605 193.453C165.596 193.513 165.603 193.574 165.625 193.631C165.655 193.726 165.707 193.812 165.777 193.882C165.847 193.953 165.934 194.005 166.028 194.034C166.669 194.234 167.8 193.509 168.418 193.061L168.413 193.05ZM165.841 193.399C166.089 193.133 167.182 193.061 167.999 193.072C167.143 193.658 166.431 193.935 166.073 193.824C166.01 193.805 165.953 193.771 165.907 193.725C165.861 193.679 165.827 193.622 165.808 193.559C165.796 193.538 165.791 193.514 165.791 193.49C165.791 193.466 165.796 193.442 165.808 193.421L165.841 193.399Z" fill="#5B9FFA"/>
<path d="M168.413 193.05C168.421 193.033 168.425 193.014 168.425 192.995C168.425 192.976 168.421 192.957 168.413 192.939C168.385 192.895 167.767 191.834 167.038 191.612C166.934 191.582 166.824 191.573 166.716 191.586C166.607 191.599 166.503 191.635 166.409 191.69C166.144 191.845 166.127 192.027 166.16 192.143C166.304 192.657 167.712 193.111 168.319 193.105C168.338 193.105 168.357 193.1 168.373 193.09C168.389 193.08 168.403 193.067 168.413 193.05ZM166.431 191.944C166.462 191.914 166.497 191.888 166.536 191.867C166.604 191.823 166.681 191.795 166.761 191.785C166.841 191.774 166.923 191.781 167 191.806C167.48 191.933 167.927 192.552 168.131 192.857C167.474 192.785 166.475 192.381 166.392 192.071C166.385 192.048 166.385 192.023 166.392 191.999C166.399 191.976 166.412 191.955 166.431 191.939V191.944Z" fill="#5B9FFA"/>
<path d="M174.49 51.0522C173.938 53.8169 172.746 59.7941 174.661 61.6298C174.661 61.6298 173.911 64.3945 168.816 64.3945C163.208 64.3945 166.139 61.6298 166.139 61.6298C169.197 60.9 169.119 58.6219 168.584 56.4876L174.49 51.0522Z" fill="#7F3E3B"/>
<path d="M165.15 44.5715C165.182 44.5765 165.213 44.5765 165.244 44.5715C165.271 44.5586 165.294 44.5405 165.313 44.5185C165.332 44.4964 165.347 44.4708 165.356 44.443C165.366 44.4152 165.369 44.3859 165.367 44.3567C165.365 44.3275 165.357 44.299 165.344 44.2729C165.195 43.9575 164.973 43.6824 164.697 43.4707C164.42 43.259 164.097 43.117 163.754 43.0565C163.696 43.0516 163.639 43.069 163.594 43.105C163.549 43.1409 163.519 43.1928 163.511 43.25C163.505 43.3078 163.522 43.3658 163.558 43.4114C163.594 43.4569 163.647 43.4863 163.704 43.4933C163.975 43.5453 164.229 43.6612 164.446 43.8315C164.663 44.0017 164.836 44.2212 164.952 44.472C164.973 44.5047 165.003 44.5311 165.038 44.5486C165.073 44.5661 165.112 44.574 165.15 44.5715Z" fill="#263238"/>
<path d="M163.478 46.999C163.044 47.8062 162.501 48.5502 161.866 49.2107C162.038 49.3683 162.242 49.4865 162.464 49.5572C162.686 49.6278 162.921 49.6492 163.152 49.6199L163.478 46.999Z" fill="#630F0F"/>
<path d="M163.892 46.3742C163.847 46.7447 163.61 47.0211 163.373 46.9935C163.135 46.9658 162.97 46.6396 163.014 46.2691C163.058 45.8987 163.295 45.6222 163.566 45.6499C163.836 45.6775 163.93 46.0037 163.892 46.3742Z" fill="#263238"/>
<path d="M163.638 45.6832L162.788 45.3403C162.788 45.3403 163.147 46.0702 163.638 45.6832Z" fill="#263238"/>
<path d="M173.287 192L168.783 193.051L166.045 182.678L170.549 181.627L173.287 192Z" fill="#7F3E3B"/>
<path d="M180.198 195.03H175.578L175.936 184.309H180.562L180.198 195.03Z" fill="#7F3E3B"/>
<path d="M175.208 194.493H180.402C180.493 194.492 180.58 194.524 180.648 194.584C180.716 194.643 180.76 194.724 180.772 194.814L181.363 198.928C181.375 199.032 181.364 199.137 181.332 199.237C181.3 199.336 181.248 199.428 181.178 199.506C181.108 199.584 181.022 199.646 180.927 199.688C180.831 199.731 180.728 199.752 180.623 199.752C178.813 199.724 177.941 199.613 175.655 199.613C174.248 199.613 172.194 199.763 170.257 199.763C168.319 199.763 168.209 197.838 169.02 197.667C172.641 196.882 173.215 195.809 174.435 194.781C174.651 194.596 174.925 194.494 175.208 194.493Z" fill="#263238"/>
<path d="M168.385 192.359L173.105 190.186C173.185 190.148 173.276 190.14 173.361 190.164C173.447 190.189 173.52 190.244 173.568 190.319L175.826 193.813C175.879 193.903 175.912 194.003 175.924 194.107C175.936 194.21 175.925 194.315 175.894 194.415C175.863 194.514 175.811 194.606 175.743 194.684C175.674 194.763 175.589 194.826 175.495 194.869C173.839 195.599 173 195.87 170.924 196.827C169.649 197.413 167.06 198.762 165.305 199.591C163.549 200.421 162.644 198.701 163.307 198.203C166.271 195.992 167.121 194.405 167.8 192.962C167.915 192.696 168.123 192.481 168.385 192.359Z" fill="#263238"/>
<path opacity="0.2" d="M166.045 182.678L167.513 188.24L171.962 186.974L170.555 181.627L166.045 182.678Z" fill="black"/>
<path opacity="0.2" d="M180.562 184.309H175.937L175.754 189.838H180.38L180.562 184.309Z" fill="black"/>
<path d="M182.66 62.6801C184.581 63.1058 186.634 70.023 186.634 70.023L181.202 75.8122C181.202 75.8122 176.693 69.3097 177.614 66.921C178.547 64.4273 180.369 62.1824 182.66 62.6801Z" fill="#263238"/>
<path opacity="0.4" d="M179.591 67.0872C178.619 66.197 177.962 66.4624 177.515 67.1702C177.073 69.2271 179.69 73.5344 180.744 75.1656C181.23 73.2193 181.788 69.1165 179.591 67.0872Z" fill="black"/>
<path d="M158.322 62.8185C158.322 62.8185 156.114 63.5926 160.53 90.7692H179.298C178.983 83.1166 178.972 78.3946 182.61 62.6803C179.98 62.1367 177.314 61.7856 174.634 61.6297C171.796 61.4249 168.948 61.4249 166.111 61.6297C162.473 61.967 158.322 62.8185 158.322 62.8185Z" fill="#263238"/>
<path opacity="0.4" d="M158.151 73.2468C158.272 74.5683 158.432 76.0557 158.642 77.7366C160.182 76.3487 161.441 72.4008 160.977 70.1006C159.877 70.9951 158.923 72.0567 158.151 73.2468Z" fill="black"/>
<path d="M160.16 69.1165C159.147 71.6698 158.007 74.1704 156.743 76.6088C155.494 79.1352 154.016 81.5413 152.327 83.7969L151.974 84.2337L151.797 84.4493C151.737 84.5212 151.687 84.5876 151.593 84.6871C151.261 85.0501 150.891 85.3764 150.489 85.6602C149.779 86.1525 149.002 86.5399 148.182 86.8103C146.751 87.268 145.266 87.532 143.766 87.5955C140.956 87.7074 138.143 87.4565 135.397 86.849L135.701 84.5267C136.971 84.5267 138.301 84.5267 139.565 84.4217C140.835 84.3591 142.099 84.2188 143.352 84.0014C144.515 83.8196 145.653 83.5004 146.741 83.0504C147.181 82.8623 147.591 82.6129 147.961 82.3095C148.102 82.1911 148.23 82.0576 148.342 81.9114C148.342 81.9114 148.408 81.8229 148.452 81.7621L148.579 81.5796L148.839 81.2147C150.224 79.0715 151.458 76.8341 152.532 74.5187C153.636 72.1687 154.74 69.7303 155.75 67.3306L160.16 69.1165Z" fill="#803E3C"/>
<path d="M158.322 62.8185C156.021 63.3715 153.194 69.697 153.194 69.697L157.964 76.7192C157.964 76.7192 164.317 68.7073 163.561 66.2633C162.788 63.7143 161.132 62.1329 158.322 62.8185Z" fill="#263238"/>
<path d="M137.026 84.8803L133.046 83.0391L132.648 87.0036C132.648 87.0036 135.96 87.9823 137.616 87.0036L137.026 84.8803Z" fill="#7F3E3B"/>
<path d="M130.667 82.6411L130.286 85.6601L132.649 87.0037L133.046 83.0392L130.667 82.6411Z" fill="#7F3E3B"/>
<path d="M176.489 46.6453C175.644 51.1627 175.385 53.098 172.801 55.1493C168.937 58.2347 163.555 56.211 163.036 51.5332C162.562 47.3198 164.019 40.6404 168.694 39.3687C169.724 39.0841 170.81 39.0685 171.847 39.3234C172.885 39.5783 173.84 40.0953 174.622 40.8249C175.403 41.5546 175.985 42.4726 176.312 43.4915C176.639 44.5104 176.7 45.5962 176.489 46.6453Z" fill="#7F3E3B"/>
<path d="M166.58 47.5963C166.321 49.902 166.221 55.8902 171.278 56.0782C177.465 56.3049 179.32 51.0078 178.768 48.8901C181.992 46.2637 182.456 41.7462 178.834 38.2904C175.213 34.8346 167.242 36.7643 165.034 40.1317C162.236 44.3063 166.58 47.5963 166.58 47.5963Z" fill="#263238"/>
<path d="M172.779 39.6342C172.481 37.2013 172.713 35.5259 174.987 35.5259C177.261 35.5259 180.364 36.3497 181.501 38.6776C182.638 41.0054 182.732 44.6492 179.558 44.2788C176.384 43.9083 173.138 42.5426 172.779 39.6342Z" fill="#5B9FFA"/>
<path d="M176.301 39.0479C175.749 36.1506 178.338 27.9893 184.625 27.4364C187.54 27.1876 188.886 30.3282 187.385 30.848C190.145 30.8148 191.911 34.4697 189.339 35.0171C191.371 36.322 190.868 38.9982 187.97 40.3141C185.812 41.3094 177.046 43.0622 176.301 39.0479Z" fill="#263238"/>
<path d="M183.019 42.1608C180.993 42.1608 178.879 41.8622 177.565 40.9831C177.198 40.7613 176.888 40.455 176.663 40.0896C176.437 39.7242 176.302 39.3102 176.268 38.8819C176.266 38.8456 176.278 38.8099 176.302 38.7822C176.325 38.7545 176.359 38.7368 176.395 38.7326C176.413 38.7303 176.432 38.7318 176.449 38.7371C176.467 38.7424 176.483 38.7513 176.497 38.7633C176.511 38.7752 176.523 38.79 176.531 38.8066C176.539 38.8232 176.543 38.8414 176.544 38.8598C176.577 39.2463 176.701 39.6195 176.905 39.949C177.109 40.2785 177.388 40.5551 177.719 40.7564C180.22 42.4152 185.999 41.8622 187.799 41.3093C189.356 40.8006 190.41 39.8109 190.62 38.6718C190.685 38.2538 190.634 37.8259 190.471 37.4354C190.308 37.045 190.041 36.7074 189.698 36.4601C189.685 36.4477 189.674 36.4327 189.667 36.416C189.66 36.3994 189.656 36.3815 189.656 36.3633C189.656 36.3452 189.66 36.3272 189.667 36.3106C189.674 36.294 189.685 36.279 189.698 36.2666C189.724 36.2412 189.758 36.2271 189.794 36.2271C189.831 36.2271 189.865 36.2412 189.891 36.2666C190.276 36.5482 190.576 36.9316 190.756 37.3739C190.937 37.8162 190.991 38.3 190.912 38.7713C190.686 40.0154 189.565 41.0771 187.909 41.6189C186.312 42.0224 184.666 42.2047 183.019 42.1608Z" fill="#263238"/>
<path d="M165.173 46.9993C164.659 47.7216 164.447 48.6164 164.582 49.493C164.764 50.6542 165.89 50.7316 166.707 49.9907C167.524 49.2497 168.236 47.9116 167.634 46.9495C167.501 46.7417 167.316 46.5716 167.098 46.4555C166.88 46.3393 166.636 46.281 166.39 46.2859C166.143 46.2909 165.901 46.3591 165.688 46.484C165.475 46.6088 165.298 46.7862 165.173 46.9993Z" fill="#7F3E3B"/>
<path d="M165.487 90.769C165.487 90.769 168.17 122.557 170.958 140.472C173.204 154.942 174.982 188.765 174.982 188.765H181.286C181.286 188.765 183.527 155.954 182.39 141.644C179.503 105.427 185.944 102.475 179.315 90.7746L165.487 90.769Z" fill="#5B9FFA"/>
<path opacity="0.4" d="M173.425 102.784C170.927 105.411 168.91 108.458 167.469 111.786C168.203 118.93 169.075 126.859 170.002 133.804C173.808 123.936 174.987 113.246 173.425 102.784Z" fill="black"/>
<path d="M161.077 90.5698C161.077 90.5698 155.253 125.288 154.337 140.936C156.622 155.407 165.973 185.995 165.973 185.995L171.708 183.91C171.708 183.91 168.534 150.557 165.084 141.428C172.851 115.236 178.559 108.612 176.897 90.7689C172.917 90.7689 161.077 90.5698 161.077 90.5698Z" fill="#5B9FFA"/>
<path d="M165.206 187.521L172.956 185.414L172.514 182.318L164.218 184.568L165.206 187.521Z" fill="#263238"/>
<path d="M174.115 188.892H182.147L182.566 186.072L174.071 185.785L174.115 188.892Z" fill="#263238"/>
<path d="M179.591 89.6633L180.436 91.3497C180.502 91.4824 180.347 91.6151 180.132 91.6151H160.437C160.271 91.6151 160.127 91.5322 160.116 91.4216L159.945 89.7628C159.945 89.6467 160.083 89.5472 160.265 89.5472H179.282C179.339 89.5393 179.397 89.5459 179.451 89.5661C179.505 89.5864 179.553 89.6198 179.591 89.6633Z" fill="#5B9FFA"/>
<path opacity="0.5" d="M179.591 89.6633L180.436 91.3497C180.502 91.4824 180.347 91.6151 180.132 91.6151H160.437C160.271 91.6151 160.127 91.5322 160.116 91.4216L159.945 89.7628C159.945 89.6467 160.083 89.5472 160.265 89.5472H179.282C179.339 89.5393 179.397 89.5459 179.451 89.5661C179.505 89.5864 179.553 89.6198 179.591 89.6633Z" fill="black"/>
<path d="M177.035 91.7867H177.543C177.648 91.7867 177.725 91.7314 177.719 91.6706L177.477 89.4589C177.477 89.3925 177.383 89.3428 177.283 89.3428H176.77C176.671 89.3428 176.593 89.3925 176.599 89.4589L176.836 91.6706C176.847 91.7425 176.936 91.7867 177.035 91.7867Z" fill="#5B9FFA"/>
<path d="M170.201 75.6851C170.14 75.6841 170.081 75.6638 170.033 75.627C169.984 75.5902 169.948 75.5389 169.931 75.4805C168.131 68.8121 164.411 63.316 162.606 62.4866C162.466 62.4003 162.297 62.3725 162.137 62.4092C162.103 62.4268 162.067 62.4373 162.029 62.4402C161.992 62.4431 161.954 62.4383 161.918 62.426C161.883 62.4138 161.85 62.3943 161.822 62.3689C161.794 62.3434 161.772 62.3126 161.756 62.2782C161.741 62.2438 161.733 62.2065 161.732 62.1688C161.731 62.1311 161.739 62.0936 161.753 62.0587C161.767 62.0239 161.789 61.9923 161.816 61.9661C161.843 61.9398 161.875 61.9194 161.91 61.906C162.061 61.8505 162.222 61.8287 162.383 61.8421C162.543 61.8554 162.698 61.9037 162.838 61.9834C164.748 62.8902 168.523 68.309 170.411 75.1266C171.764 75.1266 173.85 74.9441 174.358 74.8999C174.987 74.1479 179.613 68.3532 177.885 62.0111C177.875 61.9762 177.872 61.9397 177.877 61.9037C177.881 61.8677 177.893 61.8329 177.911 61.8015C177.929 61.77 177.953 61.7425 177.982 61.7206C178.01 61.6986 178.043 61.6827 178.078 61.6738C178.149 61.6551 178.223 61.665 178.286 61.7012C178.35 61.7375 178.396 61.7971 178.415 61.8673C180.342 68.9227 174.755 75.2869 174.695 75.3478C174.673 75.3746 174.646 75.3968 174.616 75.4129C174.586 75.4291 174.552 75.4389 174.518 75.4418C174.49 75.4418 171.736 75.6851 170.201 75.6851Z" fill="#5B9FFA"/>
<path d="M179.348 79.589C176.34 73.9436 175.109 73.5455 174.573 71.7319C174.979 70.7177 175.558 69.7822 176.285 68.9672C175.92 68.8622 175.136 68.7073 174.628 68.6133C174.684 68.3645 174.744 68.1212 174.8 67.8835C174.247 67.8215 173.688 67.8477 173.144 67.9609V67.408C172.442 67.2552 171.722 67.2086 171.007 67.2697C171.07 67.5314 171.131 67.7969 171.19 68.066C170.638 68.171 169.798 68.3424 169.396 68.4585C170.179 69.3468 170.754 70.399 171.079 71.5384C169.456 74.3307 163.152 92.2788 173.409 93.6556C183.665 95.0324 182.351 85.24 179.348 79.589Z" fill="#5B9FFA"/>
<path opacity="0.4" d="M179.348 79.589C176.34 73.9436 175.109 73.5455 174.573 71.7319C174.979 70.7177 175.558 69.7822 176.285 68.9672C175.92 68.8622 175.136 68.7073 174.628 68.6133C174.684 68.3645 174.744 68.1212 174.8 67.8835C174.247 67.8215 173.688 67.8477 173.144 67.9609V67.408C172.442 67.2552 171.722 67.2086 171.007 67.2697C171.07 67.5314 171.131 67.7969 171.19 68.066C170.638 68.171 169.798 68.3424 169.396 68.4585C170.179 69.3468 170.754 70.399 171.079 71.5384C169.456 74.3307 163.152 92.2788 173.409 93.6556C183.665 95.0324 182.351 85.24 179.348 79.589Z" fill="white"/>
<path d="M170.66 71.0016C170.596 71.2864 170.568 71.578 170.577 71.8697C170.577 72.0743 171.129 72.2126 171.742 72.2734C172.354 72.3342 174.927 72.4337 174.844 72.1462C174.761 71.8587 174.971 71.4661 174.982 71.2228C174.993 70.9795 173.961 70.9685 173.094 71.0016C172.227 71.0348 170.831 70.692 170.66 71.0016Z" fill="#5B9FFA"/>
<path d="M164.692 91.7867H165.2C165.299 91.7867 165.377 91.7314 165.371 91.6706L165.134 89.4589C165.134 89.3925 165.04 89.3428 164.935 89.3428H164.444C164.344 89.3428 164.267 89.3925 164.273 89.4589L164.51 91.6706C164.499 91.7425 164.587 91.7867 164.692 91.7867Z" fill="#5B9FFA"/>
</svg>
