<svg width="32" height="32" viewBox="0 0 32 32" fill="none" xmlns="http://www.w3.org/2000/svg">
<path fill-rule="evenodd" clip-rule="evenodd" d="M2.66675 7.11088C2.66675 6.29268 3.33003 5.62939 4.14823 5.62939H27.8519C28.6701 5.62939 29.3334 6.29268 29.3334 7.11088C29.3334 7.92908 28.6701 8.59236 27.8519 8.59236H4.14823C3.33003 8.59236 2.66675 7.92908 2.66675 7.11088ZM2.66675 15.9998C2.66675 15.1816 3.33003 14.5183 4.14823 14.5183H27.8519C28.6701 14.5183 29.3334 15.1816 29.3334 15.9998C29.3334 16.818 28.6701 17.4812 27.8519 17.4812H4.14823C3.33003 17.4812 2.66675 16.818 2.66675 15.9998ZM2.66675 24.8887C2.66675 24.0705 3.33003 23.4072 4.14823 23.4072H27.8519C28.6701 23.4072 29.3334 24.0705 29.3334 24.8887C29.3334 25.7069 28.6701 26.3701 27.8519 26.3701H4.14823C3.33003 26.3701 2.66675 25.7069 2.66675 24.8887Z" fill="#596973"/>
</svg>
