<svg width="32" height="32" viewBox="0 0 32 32" fill="none" xmlns="http://www.w3.org/2000/svg">
<path fill-rule="evenodd" clip-rule="evenodd" d="M16 4C16.9468 4 17.7143 4.76751 17.7143 5.71429V14.2857H26.2857C27.2325 14.2857 28 15.0532 28 16C28 16.9468 27.2325 17.7143 26.2857 17.7143H17.7143V26.2857C17.7143 27.2325 16.9468 28 16 28C15.0532 28 14.2857 27.2325 14.2857 26.2857V17.7143H5.71429C4.76751 17.7143 4 16.9468 4 16C4 15.0532 4.76751 14.2857 5.71429 14.2857H14.2857V5.71429C14.2857 4.76751 15.0532 4 16 4Z" fill="#4C84D0"/>
</svg>
