<svg width="16" height="16" viewBox="0 0 16 16" fill="none" xmlns="http://www.w3.org/2000/svg">
<path fill-rule="evenodd" clip-rule="evenodd" d="M6.66671 2.66683C5.60584 2.66683 4.58843 3.08826 3.83828 3.8384C3.08813 4.58855 2.66671 5.60596 2.66671 6.66683C2.66671 7.19212 2.77017 7.71226 2.97119 8.19756C3.17221 8.68287 3.46685 9.12382 3.83828 9.49526C4.20971 9.86669 4.65067 10.1613 5.13597 10.3623C5.62128 10.5634 6.14142 10.6668 6.66671 10.6668C7.192 10.6668 7.71214 10.5634 8.19744 10.3623C8.68274 10.1613 9.1237 9.86669 9.49513 9.49526C9.86657 9.12382 10.1612 8.68287 10.3622 8.19756C10.5632 7.71226 10.6667 7.19212 10.6667 6.66683C10.6667 5.60596 10.2453 4.58855 9.49513 3.8384C8.74499 3.08826 7.72757 2.66683 6.66671 2.66683ZM2.89547 2.89559C3.89567 1.8954 5.25222 1.3335 6.66671 1.3335C8.0812 1.3335 9.43775 1.8954 10.4379 2.89559C11.4381 3.89579 12 5.25234 12 6.66683C12 7.36721 11.8621 8.06074 11.5941 8.70781C11.4115 9.14853 11.1711 9.56183 10.8798 9.93708L14.4714 13.5288C14.7318 13.7891 14.7318 14.2112 14.4714 14.4716C14.2111 14.7319 13.789 14.7319 13.5286 14.4716L9.93696 10.8799C9.5617 11.1712 9.14841 11.4116 8.70769 11.5942C8.06062 11.8622 7.36709 12.0002 6.66671 12.0002C5.96632 12.0002 5.2728 11.8622 4.62573 11.5942C3.97866 11.3262 3.39072 10.9333 2.89547 10.4381C2.40023 9.94282 2.00738 9.35488 1.73935 8.70781C1.47132 8.06074 1.33337 7.36721 1.33337 6.66683C1.33337 5.25234 1.89528 3.89579 2.89547 2.89559Z" fill="#596973"/>
</svg>
