<svg width="21" height="20" viewBox="0 0 21 20" fill="none" xmlns="http://www.w3.org/2000/svg">
<g clip-path="url(#clip0_3_239976)">
<path d="M18.46 6.4575C18.46 6.27667 18.4533 6.10083 18.445 5.9275C19.2583 5.35 19.9425 4.62917 20.5 3.79917V3.79833C19.7558 4.12417 18.9642 4.34083 18.1375 4.44583C18.9875 3.93833 19.6367 3.14083 19.9417 2.18C19.1492 2.6525 18.2742 2.98583 17.3417 3.1725C16.5892 2.37083 15.5167 1.875 14.3467 1.875C12.0767 1.875 10.2492 3.7175 10.2492 5.97583C10.2492 6.30083 10.2767 6.61333 10.3442 6.91083C6.93583 6.74416 3.91917 5.11083 1.8925 2.62167C1.53917 3.23583 1.33083 3.93833 1.33083 4.69417C1.33083 6.11416 2.06167 7.3725 3.1525 8.10166C2.49333 8.08916 1.8475 7.8975 1.3 7.59666V7.64166C1.3 9.63416 2.72083 11.2892 4.585 11.6708C3.95833 11.8425 3.18667 11.8358 2.73417 11.7358C3.265 13.3592 4.77333 14.5533 6.565 14.5925C5.17 15.6833 3.39833 16.3408 1.48083 16.3408C1.145 16.3408 0.8225 16.3258 0.5 16.285C2.31667 17.4558 4.46833 18.125 6.79 18.125C14.335 18.125 18.46 11.875 18.46 6.4575Z" fill="#55ACEE"/>
</g>
<defs>
<clipPath id="clip0_3_239976">
<rect width="20" height="20" fill="white" transform="translate(0.5)"/>
</clipPath>
</defs>
</svg>
